<svg xmlns="http://www.w3.org/2000/svg" width="31" height="31" viewBox="0 0 31 31">
  <g id="Group_158581" data-name="Group 158581" transform="translate(-4837.25 -1057.556)">
    <g id="Group_158579" data-name="Group 158579" transform="translate(4837.25 1057.556)">
      <rect id="Rectangle_30620" data-name="Rectangle 30620" width="31" height="31" rx="4" fill="#234498"/>
    </g>
    <g id="_2303164_call_connection_mobile_number_phone_icon" data-name="2303164_call_connection_mobile_number_phone_icon" transform="translate(4839.542 1059.967)">
      <path id="Path_523742" data-name="Path 523742" d="M16.859,15.167l-1.3,1.3a1.491,1.491,0,0,1-1.841.224A11.084,11.084,0,0,1,9.778,12.76a1.491,1.491,0,0,1,.239-1.826l1.3-1.3a1.588,1.588,0,0,0,0-2.236L9.428,5.485a1.155,1.155,0,0,0-1.632,0L6.424,6.856A4.368,4.368,0,0,0,5.53,11.82a19.149,19.149,0,0,0,8.945,9.019,4.472,4.472,0,0,0,5.143-.805l1.342-1.342a1.155,1.155,0,0,0,0-1.632l-1.9-1.9A1.588,1.588,0,0,0,16.859,15.167Z" transform="translate(0 -0.058)" fill="none" stroke="#fff" stroke-linecap="round" stroke-linejoin="round" stroke-width="1"/>
      <path id="Path_523743" data-name="Path 523743" d="M11.456,10.409a1.588,1.588,0,0,0,0-2.236L9.562,6.265a1.155,1.155,0,0,0-1.632,0" transform="translate(-0.716 -0.256)" fill="none" stroke="#fff" stroke-linecap="round" stroke-linejoin="round" stroke-width="1"/>
      <circle id="Ellipse_30937" data-name="Ellipse 30937" cx="1.118" cy="1.118" r="1.118" transform="translate(14.064 9.832)" fill="#fff"/>
      <path id="Path_523744" data-name="Path 523744" d="M18.62,8.59a3.287,3.287,0,0,1,3.265,3.287" transform="translate(-3.438 -0.934)" fill="none" stroke="#fff" stroke-linecap="round" stroke-linejoin="round" stroke-width="1"/>
      <path id="Path_523745" data-name="Path 523745" d="M18.62,4.92a6.03,6.03,0,0,1,6.023,6.023" transform="translate(-3.438)" fill="none" stroke="#fff" stroke-linecap="round" stroke-linejoin="round" stroke-width="1"/>
      <line id="Line_1327" data-name="Line 1327" x2="3.623" y2="3.615" transform="translate(16.859 15.109)" fill="none" stroke="#fff" stroke-linecap="round" stroke-linejoin="round" stroke-width="1"/>
    </g>
  </g>
</svg>
