<svg xmlns="http://www.w3.org/2000/svg" width="13.867" height="15.107" viewBox="0 0 13.867 15.107">
  <g id="_2290850_clean_delete_garbage_recycle_bin_trash_icon" data-name="2290850_clean_delete_garbage_recycle bin_trash_icon" transform="translate(-66.871 -49.647)">
    <line id="Line_5" data-name="Line 5" x2="0.684" y2="10.685" transform="translate(68.461 53.034)" fill="none" stroke="#fff" stroke-linecap="round" stroke-linejoin="round" stroke-miterlimit="2.613" stroke-width="0.7"/>
    <path id="Path_276991" data-name="Path 276991" d="M120.633,430.972a.685.685,0,0,0,.684.686" transform="translate(-51.488 -367.253)" fill="none" stroke="#fff" stroke-linecap="round" stroke-linejoin="round" stroke-miterlimit="2.613" stroke-width="0.7"/>
    <line id="Line_6" data-name="Line 6" x2="7.951" transform="translate(69.829 64.404)" fill="none" stroke="#fff" stroke-linecap="round" stroke-linejoin="round" stroke-miterlimit="2.613" stroke-width="0.7"/>
    <path id="Path_276992" data-name="Path 276992" d="M360.389,431.657a.685.685,0,0,0,.684-.686" transform="translate(-282.609 -367.253)" fill="none" stroke="#fff" stroke-linecap="round" stroke-linejoin="round" stroke-miterlimit="2.613" stroke-width="0.7"/>
    <path id="Path_276993" data-name="Path 276993" d="M111.645,144.994l.685-10.685H101.642" transform="translate(-33.181 -81.275)" fill="none" stroke="#fff" stroke-linecap="round" stroke-linejoin="round" stroke-miterlimit="2.613" stroke-width="0.7"/>
    <path id="Path_276994" data-name="Path 276994" d="M415.246,115.973a.656.656,0,0,1-.655.656" transform="translate(-334.858 -63.6)" fill="none" stroke="#fff" stroke-linecap="round" stroke-linejoin="round" stroke-miterlimit="2.613" stroke-width="0.7"/>
    <line id="Line_7" data-name="Line 7" x1="11.856" transform="translate(67.876 53.029)" fill="none" stroke="#fff" stroke-linecap="round" stroke-linejoin="round" stroke-miterlimit="2.613" stroke-width="0.7"/>
    <path id="Path_276995" data-name="Path 276995" d="M67.876,116.629a.656.656,0,0,1-.655-.656" transform="translate(0 -63.6)" fill="none" stroke="#fff" stroke-linecap="round" stroke-linejoin="round" stroke-miterlimit="2.613" stroke-width="0.7"/>
    <path id="Path_276996" data-name="Path 276996" d="M67.221,98.44a.656.656,0,0,1,.655-.655" transform="translate(0 -46.067)" fill="none" stroke="#fff" stroke-linecap="round" stroke-linejoin="round" stroke-miterlimit="2.613" stroke-width="0.7"/>
    <line id="Line_8" data-name="Line 8" x2="11.856" transform="translate(67.876 51.718)" fill="none" stroke="#fff" stroke-linecap="round" stroke-linejoin="round" stroke-miterlimit="2.613" stroke-width="0.7"/>
    <path id="Path_276997" data-name="Path 276997" d="M414.592,97.784a.656.656,0,0,1,.655.655" transform="translate(-334.859 -46.066)" fill="none" stroke="#fff" stroke-linecap="round" stroke-linejoin="round" stroke-miterlimit="2.613" stroke-width="0.7"/>
    <line id="Line_9" data-name="Line 9" y1="1.027" transform="translate(75.87 50.681)" fill="none" stroke="#fff" stroke-linecap="round" stroke-linejoin="round" stroke-miterlimit="2.613" stroke-width="0.7"/>
    <path id="Path_276998" data-name="Path 276998" d="M289.082,50.681A.684.684,0,0,0,288.4,50" transform="translate(-213.212)" fill="none" stroke="#fff" stroke-linecap="round" stroke-linejoin="round" stroke-miterlimit="2.613" stroke-width="0.7"/>
    <line id="Line_10" data-name="Line 10" x1="2.765" transform="translate(72.422 49.997)" fill="none" stroke="#fff" stroke-linecap="round" stroke-linejoin="round" stroke-miterlimit="2.613" stroke-width="0.7"/>
    <path id="Path_276999" data-name="Path 276999" d="M193.333,50a.684.684,0,0,0-.684.684" transform="translate(-120.91)" fill="none" stroke="#fff" stroke-linecap="round" stroke-linejoin="round" stroke-miterlimit="2.613" stroke-width="0.7"/>
    <path id="Path_277000" data-name="Path 277000" d="M192.649,68.988v1.027h4.132" transform="translate(-120.91 -18.307)" fill="none" stroke="#fff" stroke-linecap="round" stroke-linejoin="round" stroke-miterlimit="2.613" stroke-width="0.7"/>
    <g id="Group_158489" data-name="Group 158489" transform="translate(70.791 54.401)">
      <line id="Line_11" data-name="Line 11" y2="8.42" transform="translate(0)" fill="none" stroke="#fff" stroke-linecap="round" stroke-linejoin="round" stroke-miterlimit="2.613" stroke-width="0.7"/>
      <line id="Line_12" data-name="Line 12" y2="8.42" transform="translate(2.009)" fill="none" stroke="#fff" stroke-linecap="round" stroke-linejoin="round" stroke-miterlimit="2.613" stroke-width="0.7"/>
      <line id="Line_13" data-name="Line 13" y2="8.42" transform="translate(4.019)" fill="none" stroke="#fff" stroke-linecap="round" stroke-linejoin="round" stroke-miterlimit="2.613" stroke-width="0.7"/>
      <line id="Line_14" data-name="Line 14" y2="8.42" transform="translate(6.027)" fill="none" stroke="#fff" stroke-linecap="round" stroke-linejoin="round" stroke-miterlimit="2.613" stroke-width="0.7"/>
    </g>
  </g>
</svg>
