<svg xmlns="http://www.w3.org/2000/svg" width="17.128" height="17.128" viewBox="0 0 17.128 17.128">
  <g id="_1814074_draw_edit_pencile_write_icon" data-name="1814074_draw_edit_pencile_write_icon" transform="translate(-10.8 -10.8)">
    <g id="Icon-Pencil" transform="translate(10.8 10.8)">
      <path id="Fill-168" d="M-168.2-350.692l1.467-5.907,9-9,4.441,4.441-9,9-5.907,1.467Zm2.5-5.352-.952,3.806,3.806-.952,8.009-8.009-2.855-2.855-8.009,8.009Z" transform="translate(168.2 367.82)"/>
      <path id="Fill-169" d="M-160.468-339.058a4.327,4.327,0,0,0-3.132-3.132l.278-1.11a5.34,5.34,0,0,1,3.925,3.925l-1.07.317" transform="translate(165.424 354.362)"/>
      <path id="Fill-170" d="M-157.207-351.378l-.793-.833,7.89-7.89.793.793-7.89,7.929" transform="translate(162.044 364.501)"/>
      <path id="Fill-171" d="M-166.2-332.655l1.744-.436a1.822,1.822,0,0,0-1.308-1.308l-.436,1.744" transform="translate(166.993 348.99)"/>
      <path id="Fill-172" d="M-136.259-364.975l-4.441-4.441,1.784-1.784.278.04a4.8,4.8,0,0,1,4.123,4.123l.04.278-1.784,1.784Zm-2.815-4.441,2.855,2.855.555-.555a3.755,3.755,0,0,0-2.855-2.855l-.555.555Z" transform="translate(151.603 371.2)"/>
    </g>
  </g>
</svg>
