<svg xmlns="http://www.w3.org/2000/svg" width="31" height="31" viewBox="0 0 31 31">
  <g id="Group_158582" data-name="Group 158582" transform="translate(-4795.25 -1057.556)">
    <g id="Group_158578" data-name="Group 158578" transform="translate(4795.25 1057.556)">
      <rect id="Rectangle_30620" data-name="Rectangle 30620" width="31" height="31" rx="4" fill="#25d366"/>
    </g>
    <g id="Group_158580" data-name="Group 158580" transform="translate(4802.621 1064.886)">
      <g id="WA_Logo">
        <g id="Group_158557" data-name="Group 158557">
          <path id="Path_523747" data-name="Path 523747" d="M183.99,173.175a8.1,8.1,0,0,0-12.742,9.768l-1.148,4.2,4.292-1.126a8.074,8.074,0,0,0,3.868.985h0a8.1,8.1,0,0,0,5.728-13.823Zm-5.725,12.456h0a6.708,6.708,0,0,1-3.424-.939l-.246-.145-2.547.668.68-2.483-.16-.254a6.729,6.729,0,1,1,5.7,3.153Zm3.69-5.041c-.2-.1-1.2-.591-1.382-.658s-.32-.1-.456.1-.522.658-.641.793-.237.153-.439.052a5.5,5.5,0,0,1-1.626-1.005,6.143,6.143,0,0,1-1.126-1.4c-.118-.2-.012-.313.089-.414s.2-.237.3-.355a1.349,1.349,0,0,0,.2-.338.372.372,0,0,0-.017-.355c-.052-.1-.456-1.1-.623-1.5s-.33-.34-.456-.347-.254-.007-.387-.007a.744.744,0,0,0-.54.254,2.271,2.271,0,0,0-.707,1.688,3.926,3.926,0,0,0,.825,2.092,9.017,9.017,0,0,0,3.456,3.055,11.562,11.562,0,0,0,1.153.426,2.762,2.762,0,0,0,1.274.081,2.087,2.087,0,0,0,1.365-.961,1.711,1.711,0,0,0,.118-.961C182.292,180.743,182.157,180.694,181.955,180.59Z" transform="translate(-170.1 -170.8)" fill="#fff" fill-rule="evenodd"/>
        </g>
      </g>
    </g>
  </g>
</svg>
