<svg xmlns="http://www.w3.org/2000/svg" xmlns:xlink="http://www.w3.org/1999/xlink" width="253.096" height="84.998" viewBox="0 0 253.096 84.998">
  <defs>
    <filter id="Path_276899" x="15.9" y="0.729" width="91.219" height="69.247" filterUnits="userSpaceOnUse">
      <feOffset dy="7" input="SourceAlpha"/>
      <feGaussianBlur stdDeviation="3" result="blur"/>
      <feFlood flood-color="#fff" flood-opacity="0.251"/>
      <feComposite operator="in" in2="blur"/>
      <feComposite in="SourceGraphic"/>
    </filter>
    <filter id="Path_276902" x="104.462" y="0.73" width="64.064" height="69.246" filterUnits="userSpaceOnUse">
      <feOffset dy="7" input="SourceAlpha"/>
      <feGaussianBlur stdDeviation="3" result="blur-2"/>
      <feFlood flood-color="#fff" flood-opacity="0.251"/>
      <feComposite operator="in" in2="blur-2"/>
      <feComposite in="SourceGraphic"/>
    </filter>
    <filter id="Path_276906" x="169.966" y="0" width="56.69" height="70.486" filterUnits="userSpaceOnUse">
      <feOffset dy="7" input="SourceAlpha"/>
      <feGaussianBlur stdDeviation="3" result="blur-3"/>
      <feFlood flood-color="#fff" flood-opacity="0.251"/>
      <feComposite operator="in" in2="blur-3"/>
      <feComposite in="SourceGraphic"/>
    </filter>
  </defs>
  <g id="Group_158433" data-name="Group 158433" transform="translate(-3246 -1991)">
    <g transform="matrix(1, 0, 0, 1, 3246, 1991)" filter="url(#Path_276899)">
      <path id="Path_276899-2" data-name="Path 276899" d="M84.687.729l-7.445,37.3L68.481.729H54.757l-9.125,37.3L38.26.729H24.9L37.894,51.976H53.005L61.473,18.25,69.65,51.976H84.761L98.119.729Z" transform="translate(0 2)" fill="#fff"/>
    </g>
    <path id="Path_276900" data-name="Path 276900" d="M103.967,50.31h-2.709a.811.811,0,0,0,.234.557.716.716,0,0,0,.507.192.628.628,0,0,0,.623-.378H103.9a1.763,1.763,0,0,1-.994,1.176,2.056,2.056,0,0,1-.862.175,2.084,2.084,0,0,1-1.021-.245,1.741,1.741,0,0,1-.7-.7,2.15,2.15,0,0,1-.253-1.064,2.192,2.192,0,0,1,.249-1.064,1.713,1.713,0,0,1,.7-.7,2.118,2.118,0,0,1,1.029-.245,2.085,2.085,0,0,1,1.008.238,1.708,1.708,0,0,1,.69.679,2.058,2.058,0,0,1,.249,1.029,3.051,3.051,0,0,1-.021.35m-1.205-.665a.619.619,0,0,0-.209-.49.776.776,0,0,0-.525-.182.761.761,0,0,0-.508.175.778.778,0,0,0-.256.5Z" transform="translate(3246 1993)" fill="#fff"/>
    <path id="Path_276901" data-name="Path 276901" d="M106.3,48.182a1.5,1.5,0,0,1,.721-.168,1.619,1.619,0,0,1,.875.245,1.689,1.689,0,0,1,.62.7,2.33,2.33,0,0,1,.228,1.057,2.356,2.356,0,0,1-.228,1.061,1.715,1.715,0,0,1-.62.707,1.6,1.6,0,0,1-.875.248,1.519,1.519,0,0,1-.721-.164,1.27,1.27,0,0,1-.482-.438v.546h-1.2V46.8h1.2v1.828a1.217,1.217,0,0,1,.482-.442m.977,1.131a.818.818,0,0,0-.612-.256.806.806,0,0,0-.606.259,1.128,1.128,0,0,0,0,1.414.837.837,0,0,0,1.214,0,.985.985,0,0,0,.252-.711.962.962,0,0,0-.248-.7" transform="translate(3246 1993)" fill="#fff"/>
    <g transform="matrix(1, 0, 0, 1, 3246, 1991)" filter="url(#Path_276902)">
      <path id="Path_276902-2" data-name="Path 276902" d="M146.823,3.942a22.961,22.961,0,0,1,9.38,9.015,26.486,26.486,0,0,1,3.323,13.4A26.535,26.535,0,0,1,156.2,39.712a22.825,22.825,0,0,1-9.416,9.052,29.859,29.859,0,0,1-14.126,3.212h-19.2V.73h19.2a29.813,29.813,0,0,1,14.162,3.212M142.881,37.3q3.943-3.869,3.942-10.95t-3.942-11.024q-3.942-3.942-11.023-3.941h-5.913V41.172h5.913q7.08,0,11.023-3.869" transform="translate(0 2)" fill="#fff"/>
    </g>
    <rect id="Rectangle_30599" data-name="Rectangle 30599" width="253.096" height="82.998" transform="translate(3246 1993)" fill="none"/>
    <path id="Path_276903" data-name="Path 276903" d="M166.43,48.069l-2.449,5.762h-1.289l.9-1.989L162,48.069h1.337l.9,2.443.9-2.443Z" transform="translate(3246 1993)" fill="#fff"/>
    <path id="Path_276904" data-name="Path 276904" d="M170.34,48.472a1.74,1.74,0,0,1,.408,1.222v2.282h-1.189V49.855a.864.864,0,0,0-.2-.61.8.8,0,0,0-1.092,0,.864.864,0,0,0-.2.61v2.121h-1.2V48.07h1.2v.518a1.267,1.267,0,0,1,.49-.41,1.557,1.557,0,0,1,.693-.15,1.42,1.42,0,0,1,1.1.444" transform="translate(3246 1993)" fill="#fff"/>
    <path id="Path_276905" data-name="Path 276905" d="M171.571,48.959a1.686,1.686,0,0,1,.62-.7,1.619,1.619,0,0,1,.875-.245,1.51,1.51,0,0,1,.725.168,1.233,1.233,0,0,1,.478.442v-.554h1.2v3.906h-1.2v-.553a1.276,1.276,0,0,1-.486.441,1.5,1.5,0,0,1-.725.168,1.584,1.584,0,0,1-.867-.248,1.715,1.715,0,0,1-.62-.707,2.354,2.354,0,0,1-.228-1.061,2.323,2.323,0,0,1,.228-1.056m2.45.356a.841.841,0,0,0-1.211,0,.962.962,0,0,0-.248.7.992.992,0,0,0,.248.711.834.834,0,0,0,1.211,0,1.132,1.132,0,0,0,0-1.414" transform="translate(3246 1993)" fill="#fff"/>
    <g transform="matrix(1, 0, 0, 1, 3246, 1991)" filter="url(#Path_276906)">
      <path id="Path_276906-2" data-name="Path 276906" d="M188.9,50.661a16.4,16.4,0,0,1-7.118-5.4,14.751,14.751,0,0,1-2.811-8.615h13.286a6.444,6.444,0,0,0,1.972,4.344,6.329,6.329,0,0,0,4.38,1.5,6.851,6.851,0,0,0,4.38-1.277,4.274,4.274,0,0,0,1.605-3.54,4.2,4.2,0,0,0-1.276-3.14,10.346,10.346,0,0,0-3.14-2.044,51.008,51.008,0,0,0-5.293-1.825,57.575,57.575,0,0,1-8.1-3.065,14.978,14.978,0,0,1-5.4-4.527,12.611,12.611,0,0,1-2.262-7.81,13.429,13.429,0,0,1,5.182-11.206Q189.478,0,197.8,0q8.468,0,13.651,4.051A14.507,14.507,0,0,1,217,15.329h-13.5a5.288,5.288,0,0,0-1.826-3.905A6.422,6.422,0,0,0,197.363,10a5.369,5.369,0,0,0-3.651,1.2,4.345,4.345,0,0,0-1.386,3.468,4.3,4.3,0,0,0,2.336,3.869,38.128,38.128,0,0,0,7.3,2.992,67.519,67.519,0,0,1,8.067,3.213A15.4,15.4,0,0,1,215.4,29.2a11.931,11.931,0,0,1,2.261,7.52,14.748,14.748,0,0,1-2.227,7.957,15.588,15.588,0,0,1-6.46,5.693,22.108,22.108,0,0,1-10,2.117A26.326,26.326,0,0,1,188.9,50.661" transform="translate(0 2)" fill="#fff"/>
    </g>
    <path id="Path_276907" data-name="Path 276907" d="M221.316,47.478a.606.606,0,0,1-.2-.459.612.612,0,0,1,.2-.465.73.73,0,0,1,.515-.186.719.719,0,0,1,.507.186.61.61,0,0,1,.2.465.6.6,0,0,1-.2.459.714.714,0,0,1-.507.186.726.726,0,0,1-.515-.186m1.11,4.5h-1.2V48.07h1.2Z" transform="translate(3246 1993)" fill="#fff"/>
    <path id="Path_276908" data-name="Path 276908" d="M225.471,50.961v1.015h-.609a1.493,1.493,0,0,1-1.015-.319,1.315,1.315,0,0,1-.364-1.04V49.064h-.476v-.995h.476v-.952h1.2v.952h.784v.995h-.784v1.568a.33.33,0,0,0,.084.252.413.413,0,0,0,.28.077Z" transform="translate(3246 1993)" fill="#fff"/>
    <path id="Path_276909" data-name="Path 276909" d="M229.8,50.31h-2.709a.82.82,0,0,0,.234.557.719.719,0,0,0,.508.192.629.629,0,0,0,.623-.378h1.274a1.763,1.763,0,0,1-.994,1.176,2.049,2.049,0,0,1-.862.175,2.087,2.087,0,0,1-1.021-.245,1.738,1.738,0,0,1-.7-.7,2.15,2.15,0,0,1-.253-1.064,2.181,2.181,0,0,1,.249-1.064,1.713,1.713,0,0,1,.7-.7,2.111,2.111,0,0,1,1.028-.245,2.086,2.086,0,0,1,1.009.238,1.714,1.714,0,0,1,.69.679,2.068,2.068,0,0,1,.249,1.029,3.057,3.057,0,0,1-.022.35m-1.2-.665a.617.617,0,0,0-.21-.49.775.775,0,0,0-.525-.182.763.763,0,0,0-.508.175.777.777,0,0,0-.255.5Z" transform="translate(3246 1993)" fill="#fff"/>
    <rect id="Rectangle_30600" data-name="Rectangle 30600" width="253.096" height="82.998" transform="translate(3246 1993)" fill="none"/>
    <path id="Path_276910" data-name="Path 276910" d="M0,71.173.142,73.6H1.409l.142-2.431Zm2.09,0L2.232,73.6H3.5l.142-2.431Z" transform="translate(3246 1993)" fill="#28d8a1"/>
    <path id="Path_276911" data-name="Path 276911" d="M11.385,72.251l-2.673,5.17v2.552H6.831V77.421l-2.673-5.17H6.292l1.5,3.233,1.486-3.233Z" transform="translate(3246 1993)" fill="#28d8a1"/>
    <path id="Path_276912" data-name="Path 276912" d="M13.315,79.676a2.817,2.817,0,0,1-1.133-1.1,3.56,3.56,0,0,1,.005-3.338,2.838,2.838,0,0,1,1.145-1.1,3.632,3.632,0,0,1,3.255,0,2.838,2.838,0,0,1,1.145,1.1A3.269,3.269,0,0,1,18.15,76.9a3.231,3.231,0,0,1-.424,1.667,2.871,2.871,0,0,1-1.155,1.106,3.447,3.447,0,0,1-1.634.384,3.376,3.376,0,0,1-1.622-.384m2.541-1.639a1.576,1.576,0,0,0,.38-1.134,1.6,1.6,0,0,0-.369-1.133,1.251,1.251,0,0,0-1.821,0,1.609,1.609,0,0,0-.363,1.137,1.634,1.634,0,0,0,.358,1.134,1.156,1.156,0,0,0,.9.4,1.227,1.227,0,0,0,.919-.4" transform="translate(3246 1993)" fill="#28d8a1"/>
    <path id="Path_276913" data-name="Path 276913" d="M25.212,73.835v6.138H23.33v-.836a2.054,2.054,0,0,1-.775.654,2.367,2.367,0,0,1-1.083.248,2.424,2.424,0,0,1-1.243-.313,2.108,2.108,0,0,1-.836-.909,3.082,3.082,0,0,1-.3-1.4V73.835h1.87v3.333a1.348,1.348,0,0,0,.319.957,1.119,1.119,0,0,0,.858.341,1.133,1.133,0,0,0,.869-.341,1.347,1.347,0,0,0,.318-.957V73.835Z" transform="translate(3246 1993)" fill="#28d8a1"/>
    <path id="Path_276914" data-name="Path 276914" d="M29.271,74.061a2.124,2.124,0,0,1,1.1-.292V75.76h-.518a1.584,1.584,0,0,0-1.056.3,1.34,1.34,0,0,0-.352,1.061v2.849H26.564V73.835h1.881v1.023a2.492,2.492,0,0,1,.826-.8" transform="translate(3246 1993)" fill="#28d8a1"/>
    <path id="Path_276915" data-name="Path 276915" d="M34.881,79.774a2.469,2.469,0,0,1-1.072-.813,2.212,2.212,0,0,1-.424-1.3h2a.969.969,0,0,0,.3.654.954.954,0,0,0,.66.226A1.037,1.037,0,0,0,37,78.35a.648.648,0,0,0,.242-.534.631.631,0,0,0-.193-.473,1.528,1.528,0,0,0-.473-.307,7.559,7.559,0,0,0-.8-.276,8.51,8.51,0,0,1-1.22-.462,2.244,2.244,0,0,1-.814-.682,1.9,1.9,0,0,1-.342-1.177,2.02,2.02,0,0,1,.782-1.688,3.2,3.2,0,0,1,2.035-.611,3.239,3.239,0,0,1,2.056.611,2.184,2.184,0,0,1,.836,1.7H37.08a.787.787,0,0,0-.275-.588.963.963,0,0,0-.649-.215.808.808,0,0,0-.549.182.7.7,0,0,0,.143,1.1,5.705,5.705,0,0,0,1.1.451,10.1,10.1,0,0,1,1.215.485,2.28,2.28,0,0,1,.808.671,1.789,1.789,0,0,1,.342,1.132,2.226,2.226,0,0,1-.336,1.2,2.358,2.358,0,0,1-.974.857,3.321,3.321,0,0,1-1.506.319,3.957,3.957,0,0,1-1.518-.275" transform="translate(3246 1993)" fill="#28d8a1"/>
    <path id="Path_276916" data-name="Path 276916" d="M46.431,73.835v6.138H44.549v-.836a2.054,2.054,0,0,1-.775.654,2.367,2.367,0,0,1-1.083.248,2.424,2.424,0,0,1-1.243-.313,2.108,2.108,0,0,1-.836-.909,3.082,3.082,0,0,1-.3-1.4V73.835h1.87v3.333a1.348,1.348,0,0,0,.319.957,1.119,1.119,0,0,0,.858.341,1.133,1.133,0,0,0,.869-.341,1.347,1.347,0,0,0,.318-.957V73.835Z" transform="translate(3246 1993)" fill="#28d8a1"/>
    <path id="Path_276917" data-name="Path 276917" d="M47.8,75.231a2.712,2.712,0,0,1,1.088-1.1,3.271,3.271,0,0,1,1.6-.384,3.043,3.043,0,0,1,1.93.6,2.849,2.849,0,0,1,1.018,1.705h-2a.964.964,0,0,0-.979-.7.99.99,0,0,0-.826.4,2.306,2.306,0,0,0,0,2.3.987.987,0,0,0,.826.4.965.965,0,0,0,.979-.7h2a2.872,2.872,0,0,1-1.024,1.693,3.007,3.007,0,0,1-1.924.616,3.261,3.261,0,0,1-1.6-.385,2.712,2.712,0,0,1-1.088-1.1,3.77,3.77,0,0,1,0-3.344" transform="translate(3246 1993)" fill="#28d8a1"/>
    <path id="Path_276918" data-name="Path 276918" d="M54.455,75.231a2.708,2.708,0,0,1,1.089-1.1,3.267,3.267,0,0,1,1.6-.384,3.041,3.041,0,0,1,1.93.6,2.844,2.844,0,0,1,1.018,1.705h-2a.963.963,0,0,0-.979-.7.99.99,0,0,0-.825.4,2.3,2.3,0,0,0,0,2.3.986.986,0,0,0,.825.4.964.964,0,0,0,.979-.7h2a2.871,2.871,0,0,1-1.023,1.693,3.01,3.01,0,0,1-1.925.616,3.257,3.257,0,0,1-1.6-.385,2.708,2.708,0,0,1-1.089-1.1,3.77,3.77,0,0,1,0-3.344" transform="translate(3246 1993)" fill="#28d8a1"/>
    <path id="Path_276919" data-name="Path 276919" d="M66.846,77.355H62.59a1.274,1.274,0,0,0,.367.875,1.13,1.13,0,0,0,.8.3.987.987,0,0,0,.978-.594h2a2.757,2.757,0,0,1-.555,1.089,2.8,2.8,0,0,1-1.007.76,3.255,3.255,0,0,1-1.353.274,3.289,3.289,0,0,1-1.606-.385,2.741,2.741,0,0,1-1.1-1.1,3.4,3.4,0,0,1-.4-1.672,3.448,3.448,0,0,1,.39-1.672,2.7,2.7,0,0,1,1.095-1.1,3.315,3.315,0,0,1,1.617-.385,3.275,3.275,0,0,1,1.584.375,2.678,2.678,0,0,1,1.083,1.066,3.232,3.232,0,0,1,.391,1.617,4.807,4.807,0,0,1-.033.55M64.954,76.31a.968.968,0,0,0-.33-.77,1.213,1.213,0,0,0-.825-.286,1.192,1.192,0,0,0-.8.275,1.217,1.217,0,0,0-.4.781Z" transform="translate(3246 1993)" fill="#28d8a1"/>
    <path id="Path_276920" data-name="Path 276920" d="M68.937,79.786a2.446,2.446,0,0,1-.991-.754,1.989,1.989,0,0,1-.407-1.072H69.4a.707.707,0,0,0,.3.516,1.051,1.051,0,0,0,.649.2.921.921,0,0,0,.544-.138.421.421,0,0,0,.194-.357.414.414,0,0,0-.276-.391,5.509,5.509,0,0,0-.891-.28,8.39,8.39,0,0,1-1.1-.325,1.908,1.908,0,0,1-.759-.539,1.469,1.469,0,0,1-.319-1,1.678,1.678,0,0,1,.292-.962A1.948,1.948,0,0,1,68.886,74a3.282,3.282,0,0,1,1.348-.253,2.7,2.7,0,0,1,1.82.571,2.228,2.228,0,0,1,.765,1.519H71.082a.75.75,0,0,0-.282-.506.972.972,0,0,0-.621-.188.846.846,0,0,0-.5.127.4.4,0,0,0-.176.346.422.422,0,0,0,.279.4,4.584,4.584,0,0,0,.875.263,9.8,9.8,0,0,1,1.111.347,1.926,1.926,0,0,1,.754.55,1.555,1.555,0,0,1,.335,1.017,1.612,1.612,0,0,1-.3.963,2,2,0,0,1-.868.665,3.332,3.332,0,0,1-1.313.242,3.529,3.529,0,0,1-1.431-.274" transform="translate(3246 1993)" fill="#28d8a1"/>
    <path id="Path_276921" data-name="Path 276921" d="M75.074,79.786a2.449,2.449,0,0,1-.99-.754,1.98,1.98,0,0,1-.406-1.072h1.858a.71.71,0,0,0,.3.516,1.053,1.053,0,0,0,.649.2.926.926,0,0,0,.545-.138.424.424,0,0,0,.192-.357.414.414,0,0,0-.275-.391,5.509,5.509,0,0,0-.891-.28,8.343,8.343,0,0,1-1.1-.325,1.908,1.908,0,0,1-.759-.539,1.469,1.469,0,0,1-.319-1,1.692,1.692,0,0,1,.291-.962A1.954,1.954,0,0,1,75.025,74a3.274,3.274,0,0,1,1.347-.253,2.7,2.7,0,0,1,1.821.571,2.231,2.231,0,0,1,.764,1.519H77.219a.753.753,0,0,0-.281-.506.968.968,0,0,0-.621-.188.859.859,0,0,0-.507.127.4.4,0,0,0-.175.346.422.422,0,0,0,.281.4,4.547,4.547,0,0,0,.874.263,9.866,9.866,0,0,1,1.111.347,1.916,1.916,0,0,1,.753.55,1.556,1.556,0,0,1,.336,1.017,1.619,1.619,0,0,1-.3.963,1.994,1.994,0,0,1-.869.665,3.323,3.323,0,0,1-1.314.242,3.535,3.535,0,0,1-1.43-.274" transform="translate(3246 1993)" fill="#28d8a1"/>
    <path id="Path_276922" data-name="Path 276922" d="M82.17,78.234l-1.222,3.157h-1.2l.637-3.157Z" transform="translate(3246 1993)" fill="#28d8a1"/>
    <path id="Path_276923" data-name="Path 276923" d="M91.211,75.963a2.249,2.249,0,0,1-.945.9,3.326,3.326,0,0,1-1.584.341H87.516v2.772H85.635V72.251h3.047a3.471,3.471,0,0,1,1.561.318,2.192,2.192,0,0,1,.957.88,2.568,2.568,0,0,1,.32,1.287,2.493,2.493,0,0,1-.309,1.227m-1.869-.512a1.1,1.1,0,0,0,0-1.43,1.128,1.128,0,0,0-.8-.253H87.516v1.937h1.022a1.124,1.124,0,0,0,.8-.254" transform="translate(3246 1993)" fill="#28d8a1"/>
    <path id="Path_276924" data-name="Path 276924" d="M93.67,79.676a2.817,2.817,0,0,1-1.133-1.1,3.56,3.56,0,0,1,0-3.338,2.835,2.835,0,0,1,1.144-1.1,3.632,3.632,0,0,1,3.255,0,2.838,2.838,0,0,1,1.145,1.1A3.259,3.259,0,0,1,98.5,76.9a3.221,3.221,0,0,1-.424,1.667,2.862,2.862,0,0,1-1.154,1.106,3.452,3.452,0,0,1-1.634.384,3.376,3.376,0,0,1-1.622-.384m2.541-1.639A1.581,1.581,0,0,0,96.59,76.9a1.6,1.6,0,0,0-.369-1.133,1.251,1.251,0,0,0-1.821,0,1.609,1.609,0,0,0-.362,1.137,1.634,1.634,0,0,0,.358,1.134,1.156,1.156,0,0,0,.9.4,1.229,1.229,0,0,0,.919-.4" transform="translate(3246 1993)" fill="#28d8a1"/>
    <path id="Path_276925" data-name="Path 276925" d="M108.316,73.835l-1.662,6.138h-2.078l-.969-3.983-1,3.983h-2.068l-1.672-6.138h1.881l.869,4.389,1.033-4.389h1.991l1.045,4.366.859-4.366Z" transform="translate(3246 1993)" fill="#28d8a1"/>
    <path id="Path_276926" data-name="Path 276926" d="M114.785,77.355h-4.257a1.279,1.279,0,0,0,.368.875,1.128,1.128,0,0,0,.8.3.987.987,0,0,0,.978-.594h2a2.742,2.742,0,0,1-.554,1.089,2.8,2.8,0,0,1-1.007.76,3.513,3.513,0,0,1-2.959-.111,2.737,2.737,0,0,1-1.1-1.1,3.4,3.4,0,0,1-.4-1.672,3.436,3.436,0,0,1,.39-1.672,2.7,2.7,0,0,1,1.1-1.1,3.561,3.561,0,0,1,3.2-.01,2.69,2.69,0,0,1,1.083,1.066,3.231,3.231,0,0,1,.39,1.617,4.8,4.8,0,0,1-.032.55m-1.892-1.045a.969.969,0,0,0-.33-.77,1.217,1.217,0,0,0-.825-.286,1.194,1.194,0,0,0-.8.275,1.216,1.216,0,0,0-.4.781Z" transform="translate(3246 1993)" fill="#28d8a1"/>
    <path id="Path_276927" data-name="Path 276927" d="M118.514,74.061a2.124,2.124,0,0,1,1.1-.292V75.76H119.1a1.584,1.584,0,0,0-1.056.3,1.34,1.34,0,0,0-.352,1.061v2.849h-1.881V73.835h1.881v1.023a2.492,2.492,0,0,1,.826-.8" transform="translate(3246 1993)" fill="#28d8a1"/>
    <path id="Path_276928" data-name="Path 276928" d="M126.268,77.355h-4.256a1.274,1.274,0,0,0,.367.875,1.13,1.13,0,0,0,.8.3.987.987,0,0,0,.978-.594h2a2.757,2.757,0,0,1-.555,1.089,2.8,2.8,0,0,1-1.007.76,3.255,3.255,0,0,1-1.353.274,3.289,3.289,0,0,1-1.606-.385,2.741,2.741,0,0,1-1.1-1.1,3.4,3.4,0,0,1-.4-1.672,3.448,3.448,0,0,1,.39-1.672,2.7,2.7,0,0,1,1.1-1.1,3.315,3.315,0,0,1,1.617-.385,3.275,3.275,0,0,1,1.584.375,2.678,2.678,0,0,1,1.083,1.066,3.232,3.232,0,0,1,.391,1.617,4.806,4.806,0,0,1-.033.55m-1.892-1.045a.968.968,0,0,0-.33-.77,1.213,1.213,0,0,0-.825-.286,1.192,1.192,0,0,0-.8.275,1.217,1.217,0,0,0-.4.781Z" transform="translate(3246 1993)" fill="#28d8a1"/>
    <path id="Path_276929" data-name="Path 276929" d="M127.274,75.231a2.673,2.673,0,0,1,.974-1.1,2.537,2.537,0,0,1,1.375-.385,2.418,2.418,0,0,1,1.106.253,2.008,2.008,0,0,1,.786.682V71.833H133.4v8.14h-1.881v-.88a1.919,1.919,0,0,1-.753.7,2.362,2.362,0,0,1-1.139.264,2.508,2.508,0,0,1-1.375-.391,2.705,2.705,0,0,1-.974-1.11,4.059,4.059,0,0,1,0-3.329m3.851.562a1.324,1.324,0,0,0-1.9-.006,1.522,1.522,0,0,0-.39,1.106,1.558,1.558,0,0,0,.39,1.116,1.31,1.31,0,0,0,1.9.006,1.777,1.777,0,0,0,0-2.222" transform="translate(3246 1993)" fill="#28d8a1"/>
    <path id="Path_276930" data-name="Path 276930" d="M139.732,74.011a2.373,2.373,0,0,1,1.134-.264,2.544,2.544,0,0,1,1.375.385,2.669,2.669,0,0,1,.972,1.1,4.046,4.046,0,0,1,0,3.328,2.7,2.7,0,0,1-.972,1.111,2.514,2.514,0,0,1-1.375.39,2.375,2.375,0,0,1-1.134-.258,2,2,0,0,1-.759-.688v.859h-1.881v-8.14h1.881V74.7a1.935,1.935,0,0,1,.759-.693m1.534,1.776a1.285,1.285,0,0,0-.962-.4,1.268,1.268,0,0,0-.952.407,1.774,1.774,0,0,0,0,2.222,1.316,1.316,0,0,0,1.909-.006,1.541,1.541,0,0,0,.4-1.117,1.517,1.517,0,0,0-.391-1.1" transform="translate(3246 1993)" fill="#28d8a1"/>
    <path id="Path_276931" data-name="Path 276931" d="M150.83,73.835l-3.85,9.053h-2.023l1.407-3.124-2.5-5.929h2.1l1.418,3.839,1.408-3.839Z" transform="translate(3246 1993)" fill="#28d8a1"/>
    <path id="Path_276932" data-name="Path 276932" d="M158.871,72.735a3.466,3.466,0,0,1,1.414,1.358,4.314,4.314,0,0,1,0,4.032,3.44,3.44,0,0,1-1.42,1.364,4.489,4.489,0,0,1-2.128.484h-2.894V72.251h2.894a4.494,4.494,0,0,1,2.134.484m-.594,5.027a2.207,2.207,0,0,0,.594-1.65,2.061,2.061,0,0,0-2.255-2.255h-.892v4.488h.892a2.269,2.269,0,0,0,1.661-.583" transform="translate(3246 1993)" fill="#28d8a1"/>
    <path id="Path_276933" data-name="Path 276933" d="M168.111,73.835l-3.85,9.053h-2.024l1.407-3.124-2.5-5.929h2.1l1.419,3.839,1.408-3.839Z" transform="translate(3246 1993)" fill="#28d8a1"/>
    <path id="Path_276934" data-name="Path 276934" d="M174.254,74.467a2.721,2.721,0,0,1,.645,1.92v3.586h-1.872V76.64a1.346,1.346,0,0,0-.318-.957,1.251,1.251,0,0,0-1.717,0,1.35,1.35,0,0,0-.318.957v3.333h-1.881V73.835h1.881v.814a1.98,1.98,0,0,1,.769-.644,2.463,2.463,0,0,1,1.09-.236,2.228,2.228,0,0,1,1.721.7" transform="translate(3246 1993)" fill="#28d8a1"/>
    <path id="Path_276935" data-name="Path 276935" d="M176.19,75.231a2.673,2.673,0,0,1,.974-1.1,2.537,2.537,0,0,1,1.375-.385,2.362,2.362,0,0,1,1.139.264,1.945,1.945,0,0,1,.753.693v-.869h1.881v6.138h-1.881V79.1a2.033,2.033,0,0,1-.765.693,2.359,2.359,0,0,1-1.139.264,2.487,2.487,0,0,1-1.363-.391,2.705,2.705,0,0,1-.974-1.11,4.059,4.059,0,0,1,0-3.329m3.851.562a1.324,1.324,0,0,0-1.9-.006,1.522,1.522,0,0,0-.39,1.106,1.558,1.558,0,0,0,.39,1.116,1.31,1.31,0,0,0,1.9.006,1.777,1.777,0,0,0,0-2.222" transform="translate(3246 1993)" fill="#28d8a1"/>
    <path id="Path_276936" data-name="Path 276936" d="M193.328,74.462a2.64,2.64,0,0,1,.677,1.925v3.586h-1.87V76.64a1.271,1.271,0,0,0-.314-.919,1.313,1.313,0,0,0-1.727,0,1.27,1.27,0,0,0-.313.919v3.333H187.91V76.64a1.27,1.27,0,0,0-.312-.919,1.314,1.314,0,0,0-1.728,0,1.27,1.27,0,0,0-.313.919v3.333h-1.881V73.835h1.881v.77a2,2,0,0,1,.748-.611,2.354,2.354,0,0,1,1.044-.225,2.533,2.533,0,0,1,1.238.3,2.124,2.124,0,0,1,.852.847,2.47,2.47,0,0,1,.869-.825,2.348,2.348,0,0,1,1.2-.319,2.429,2.429,0,0,1,1.82.693" transform="translate(3246 1993)" fill="#28d8a1"/>
    <path id="Path_276937" data-name="Path 276937" d="M195.462,72.9a.943.943,0,0,1-.314-.72.958.958,0,0,1,.314-.732,1.141,1.141,0,0,1,.809-.291,1.124,1.124,0,0,1,.8.291.957.957,0,0,1,.313.732.943.943,0,0,1-.313.72,1.12,1.12,0,0,1-.8.291,1.136,1.136,0,0,1-.809-.291m1.743,7.068h-1.881V73.835h1.881Z" transform="translate(3246 1993)" fill="#28d8a1"/>
    <path id="Path_276938" data-name="Path 276938" d="M198.586,75.231a2.7,2.7,0,0,1,1.09-1.1,3.261,3.261,0,0,1,1.6-.384,3.042,3.042,0,0,1,1.931.6,2.853,2.853,0,0,1,1.018,1.705h-2a.965.965,0,0,0-.98-.7.988.988,0,0,0-.824.4,2.293,2.293,0,0,0,0,2.3.985.985,0,0,0,.824.4.966.966,0,0,0,.98-.7h2a2.881,2.881,0,0,1-1.023,1.693,3.013,3.013,0,0,1-1.926.616,3.25,3.25,0,0,1-1.6-.385,2.7,2.7,0,0,1-1.09-1.1,3.77,3.77,0,0,1,0-3.344" transform="translate(3246 1993)" fill="#28d8a1"/>
    <path id="Path_276939" data-name="Path 276939" d="M212.584,72.735A3.47,3.47,0,0,1,214,74.093a4.307,4.307,0,0,1,0,4.032,3.443,3.443,0,0,1-1.419,1.364,4.5,4.5,0,0,1-2.129.484h-2.893V72.251h2.893a4.5,4.5,0,0,1,2.135.484m-.594,5.027a2.207,2.207,0,0,0,.594-1.65,2.061,2.061,0,0,0-2.256-2.255h-.891v4.488h.891a2.272,2.272,0,0,0,1.662-.583" transform="translate(3246 1993)" fill="#28d8a1"/>
    <path id="Path_276940" data-name="Path 276940" d="M221.307,77.355h-4.258a1.276,1.276,0,0,0,.369.875,1.127,1.127,0,0,0,.8.3.988.988,0,0,0,.979-.594h2a2.744,2.744,0,0,1-.555,1.089,2.8,2.8,0,0,1-1.006.76,3.513,3.513,0,0,1-2.959-.111,2.731,2.731,0,0,1-1.1-1.1,3.386,3.386,0,0,1-.4-1.672,3.425,3.425,0,0,1,.39-1.672,2.7,2.7,0,0,1,1.094-1.1,3.31,3.31,0,0,1,1.617-.385,3.275,3.275,0,0,1,1.584.375,2.693,2.693,0,0,1,1.084,1.066,3.242,3.242,0,0,1,.39,1.617,5.038,5.038,0,0,1-.032.55m-1.893-1.045a.965.965,0,0,0-.33-.77,1.212,1.212,0,0,0-.824-.286,1.2,1.2,0,0,0-.8.275,1.221,1.221,0,0,0-.4.781Z" transform="translate(3246 1993)" fill="#28d8a1"/>
    <path id="Path_276941" data-name="Path 276941" d="M223.4,79.786a2.449,2.449,0,0,1-.99-.754A1.98,1.98,0,0,1,222,77.96h1.858a.71.71,0,0,0,.3.516,1.053,1.053,0,0,0,.649.2.926.926,0,0,0,.545-.138.424.424,0,0,0,.192-.357.414.414,0,0,0-.275-.391,5.51,5.51,0,0,0-.891-.28,8.344,8.344,0,0,1-1.1-.325,1.908,1.908,0,0,1-.759-.539,1.469,1.469,0,0,1-.319-1,1.692,1.692,0,0,1,.291-.962,1.954,1.954,0,0,1,.859-.687,3.274,3.274,0,0,1,1.347-.253,2.7,2.7,0,0,1,1.821.571,2.231,2.231,0,0,1,.764,1.519h-1.738a.753.753,0,0,0-.281-.506.968.968,0,0,0-.621-.188.859.859,0,0,0-.507.127.4.4,0,0,0-.175.346.422.422,0,0,0,.281.4,4.546,4.546,0,0,0,.874.263,9.867,9.867,0,0,1,1.111.347,1.916,1.916,0,0,1,.753.55,1.556,1.556,0,0,1,.336,1.017,1.619,1.619,0,0,1-.3.963,1.994,1.994,0,0,1-.869.665,3.323,3.323,0,0,1-1.314.242,3.535,3.535,0,0,1-1.43-.274" transform="translate(3246 1993)" fill="#28d8a1"/>
    <path id="Path_276942" data-name="Path 276942" d="M228.6,72.9a.946.946,0,0,1-.313-.72.961.961,0,0,1,.313-.732,1.142,1.142,0,0,1,.809-.291,1.127,1.127,0,0,1,.8.291.957.957,0,0,1,.312.732.942.942,0,0,1-.312.72,1.122,1.122,0,0,1-.8.291,1.138,1.138,0,0,1-.809-.291m1.744,7.068h-1.881V73.835h1.881Z" transform="translate(3246 1993)" fill="#28d8a1"/>
    <path id="Path_276943" data-name="Path 276943" d="M235.183,74.011a1.946,1.946,0,0,1,.753.693v-.869h1.881v6.127a3.473,3.473,0,0,1-.334,1.534,2.576,2.576,0,0,1-1.024,1.1,3.316,3.316,0,0,1-1.711.407,3.565,3.565,0,0,1-2.211-.643,2.436,2.436,0,0,1-.968-1.745h1.859a.89.89,0,0,0,.418.556,1.525,1.525,0,0,0,.814.2,1.279,1.279,0,0,0,.93-.336,1.441,1.441,0,0,0,.346-1.072v-.869a2.087,2.087,0,0,1-.758.7,2.291,2.291,0,0,1-1.133.27,2.506,2.506,0,0,1-1.375-.391,2.7,2.7,0,0,1-.975-1.11,4.059,4.059,0,0,1,0-3.329,2.668,2.668,0,0,1,.975-1.1,2.535,2.535,0,0,1,1.375-.385,2.361,2.361,0,0,1,1.138.264m.363,1.782a1.323,1.323,0,0,0-1.9-.006,1.522,1.522,0,0,0-.391,1.106,1.559,1.559,0,0,0,.391,1.116,1.309,1.309,0,0,0,1.9.006,1.777,1.777,0,0,0,0-2.222" transform="translate(3246 1993)" fill="#28d8a1"/>
    <path id="Path_276944" data-name="Path 276944" d="M244.643,74.467a2.725,2.725,0,0,1,.644,1.92v3.586h-1.871V76.64a1.35,1.35,0,0,0-.318-.957,1.251,1.251,0,0,0-1.717,0,1.346,1.346,0,0,0-.318.957v3.333h-1.881V73.835h1.881v.814a1.972,1.972,0,0,1,.769-.644,2.459,2.459,0,0,1,1.089-.236,2.232,2.232,0,0,1,1.722.7" transform="translate(3246 1993)" fill="#28d8a1"/>
    <path id="Path_276945" data-name="Path 276945" d="M246.666,79.77a.944.944,0,0,1-.312-.721.973.973,0,0,1,.312-.737,1.129,1.129,0,0,1,.809-.3,1.111,1.111,0,0,1,.8.3.975.975,0,0,1,.314.737.946.946,0,0,1-.314.721,1.124,1.124,0,0,1-.8.291,1.142,1.142,0,0,1-.809-.291" transform="translate(3246 1993)" fill="#28d8a1"/>
    <path id="Path_276946" data-name="Path 276946" d="M251.006,71.173l-.142,2.431H249.6l-.143-2.431Zm2.09,0-.143,2.431h-1.265l-.143-2.431Z" transform="translate(3246 1993)" fill="#28d8a1"/>
    <rect id="Rectangle_30601" data-name="Rectangle 30601" width="253.096" height="82.998" transform="translate(3246 1993)" fill="none"/>
  </g>
</svg>
