<svg xmlns="http://www.w3.org/2000/svg" width="28.33" height="33.996" viewBox="0 0 28.33 33.996">
  <g id="Group_158458" data-name="Group 158458" transform="translate(-221.5 -572.002)">
    <g id="Group_158455" data-name="Group 158455">
      <path id="Path_276986" data-name="Path 276986" d="M4862.167,601.583l4.25.5,2.5,3.25,3.417-6.083-.708-.937H4868.5l-1.437-1.281-1.312-1.844Z" transform="translate(-4639)" fill="#e5e4e4"/>
      <path id="Path_276987" data-name="Path 276987" d="M0,3.75l4.25-.5L6.75,0l3.417,6.083-.708.938H6.333L4.9,8.3,3.583,10.146Z" transform="translate(247.738 605.508) rotate(-178)" fill="#e5e4e4"/>
    </g>
    <g id="Group_158452" data-name="Group 158452" transform="translate(3.584 5.002)">
      <g id="Award" transform="translate(217.916 567)">
        <path id="Path_276966" data-name="Path 276966" d="M35.331,16.165a3.574,3.574,0,0,0-.914-2.4,2.474,2.474,0,0,1-.627-1.646,2.684,2.684,0,0,1,.051-.509,3.77,3.77,0,0,0,.079-.726,3.606,3.606,0,0,0-2.481-3.423,2.431,2.431,0,0,1-1.57-1.57,3.562,3.562,0,0,0-.592-1.1,3.632,3.632,0,0,0-2.831-1.378,3.813,3.813,0,0,0-.731.079,2.491,2.491,0,0,1-2.147-.574,3.608,3.608,0,0,0-4.774-.028.629.629,0,0,0-.062.048,2.408,2.408,0,0,1-2.123.553,3.787,3.787,0,0,0-.725-.078,3.631,3.631,0,0,0-2.83,1.376,3.559,3.559,0,0,0-.593,1.1,2.432,2.432,0,0,1-1.573,1.57,3.6,3.6,0,0,0-2.479,3.422,3.781,3.781,0,0,0,.078.725,2.671,2.671,0,0,1,.052.511,2.472,2.472,0,0,1-.624,1.643,3.606,3.606,0,0,0,0,4.8,2.474,2.474,0,0,1,.627,1.647,2.685,2.685,0,0,1-.051.509,3.77,3.77,0,0,0-.079.726,3.606,3.606,0,0,0,2.482,3.423,2.341,2.341,0,0,1,.606.312L8.209,31.508a.566.566,0,0,0,.46.826l4.065.3,2.583,3.15a.567.567,0,0,0,.438.207c.019,0,.039,0,.059,0a.565.565,0,0,0,.444-.3l3.055-5.873a3.611,3.611,0,0,0,3.707,0l3.055,5.873a.565.565,0,0,0,.444.3c.02,0,.039,0,.059,0a.567.567,0,0,0,.438-.207l2.583-3.15,4.064-.3a.566.566,0,0,0,.46-.826l-3.293-6.331a2.469,2.469,0,0,1,.613-.309,3.6,3.6,0,0,0,2.479-3.422,3.781,3.781,0,0,0-.078-.725,2.671,2.671,0,0,1-.052-.511,2.475,2.475,0,0,1,.627-1.646A3.577,3.577,0,0,0,35.331,16.165ZM12.687,31.5,9.61,31.269l2.7-5.187.016.029a2.5,2.5,0,0,1,.138.33,3.6,3.6,0,0,0,1.778,2.069Zm2.961,2.907-1.955-2.384,1.636-3.148a3.437,3.437,0,0,0,1.281-.033,2.677,2.677,0,0,1,.5-.051c.054,0,.105.01.159.013a2.459,2.459,0,0,1,1,.279c.039.021.08.035.119.058h0Zm11.034,0-2.739-5.266a2.563,2.563,0,0,1,.39-.19,2.466,2.466,0,0,1,.743-.149c.048,0,.094-.012.144-.011a2.678,2.678,0,0,1,.441.045c.02,0,.039,0,.059.006l.025,0c.151.029.29.047.422.059.051,0,.1.006.149.008s.089.007.13.007c.02,0,.039,0,.059,0a3.091,3.091,0,0,0,.487-.039H27l1.636,3.147Zm6.037-3.138-3.076.231-1.549-2.981c.039-.02.074-.048.113-.069.057-.032.112-.067.167-.1.08-.051.16-.1.236-.157a3.606,3.606,0,0,0,.332-.282c.049-.047.092-.1.138-.149.073-.078.144-.158.21-.243.04-.051.077-.1.114-.159.066-.1.127-.193.183-.3.026-.047.054-.094.078-.143a3.612,3.612,0,0,0,.2-.48l.005-.012a2.467,2.467,0,0,1,.154-.334Zm.853-13.46,0,0a3.6,3.6,0,0,0-.914,2.4,3.855,3.855,0,0,0,.072.726,2.68,2.68,0,0,1,.058.509,2.472,2.472,0,0,1-1.7,2.346,3.592,3.592,0,0,0-1.605,1.081c-.022.025-.045.049-.067.075-.061.076-.117.156-.172.237-.027.039-.056.076-.081.116-.059.093-.11.192-.16.29-.015.029-.033.057-.047.086a3.541,3.541,0,0,0-.162.407,2.511,2.511,0,0,1-.138.328c-.018.036-.038.07-.058.105q-.055.1-.118.19c-.028.041-.057.082-.088.122s-.077.091-.116.135a2.473,2.473,0,0,1-.561.463l-.036.022a2.491,2.491,0,0,1-.249.126l-.019.008a2.512,2.512,0,0,1-.275.1c-.029.009-.058.015-.087.023-.068.017-.134.038-.2.05h-.009a2.476,2.476,0,0,1-.351.028c-.038,0-.076,0-.116,0s-.072,0-.11-.007c-.1-.01-.2-.023-.319-.046a3.944,3.944,0,0,0-.438-.06c-.06,0-.118,0-.177,0-.083,0-.166-.008-.247-.006-.115,0-.228.016-.34.031-.023,0-.047,0-.07.007a3.491,3.491,0,0,0-1.142.379l-.007,0a3.6,3.6,0,0,0-.316.194l-.033.021c-.094.065-.184.137-.273.212-.016.014-.034.025-.05.039l0,0c-.011.01-.023.017-.034.027a2.474,2.474,0,0,1-3.287,0l-.03-.025-.017-.013c-.056-.048-.115-.089-.173-.133s-.1-.079-.148-.114-.084-.051-.126-.077c-.074-.046-.146-.095-.223-.136-.018-.01-.038-.017-.057-.027a3.583,3.583,0,0,0-2.356-.318,2.186,2.186,0,0,1-1.206-.05,2.469,2.469,0,0,1-1.65-1.594,3.51,3.51,0,0,0-.924-1.462l0,0-.005-.006,0,0a3.466,3.466,0,0,0-1.355-.819,2.473,2.473,0,0,1-1.7-2.347,2.67,2.67,0,0,1,.058-.51,3.869,3.869,0,0,0,.072-.725,3.607,3.607,0,0,0-.916-2.4,2.473,2.473,0,0,1,0-3.289,3.6,3.6,0,0,0,.914-2.4,3.855,3.855,0,0,0-.072-.726,2.68,2.68,0,0,1-.058-.509,2.472,2.472,0,0,1,1.7-2.346,3.6,3.6,0,0,0,2.295-2.294,2.423,2.423,0,0,1,.406-.755,2.489,2.489,0,0,1,1.94-.945,2.706,2.706,0,0,1,.509.057,3.546,3.546,0,0,0,3.062-.792.593.593,0,0,0,.067-.052,2.474,2.474,0,0,1,3.29,0,3.627,3.627,0,0,0,3.125.841,2.716,2.716,0,0,1,.509-.057,2.491,2.491,0,0,1,1.941.946,2.428,2.428,0,0,1,.4.754,3.6,3.6,0,0,0,2.292,2.294,2.473,2.473,0,0,1,1.7,2.346,2.67,2.67,0,0,1-.058.51,3.869,3.869,0,0,0-.072.725,3.607,3.607,0,0,0,.916,2.4,2.473,2.473,0,0,1,0,3.286Z" transform="translate(-7 -2)"/>
        <path id="Path_276968" data-name="Path 276968" d="M24.225,8.588A10.166,10.166,0,1,0,34.39,18.754,10.166,10.166,0,0,0,24.225,8.588Zm0,19.2a9.032,9.032,0,1,1,9.033-9.032,9.032,9.032,0,0,1-9.033,9.032Z" transform="translate(-10.059 -4.855)"/>
      </g>
      <path id="_8665019_check_mark_icon" data-name="8665019_check_mark_icon" d="M44.606,96.9a.9.9,0,0,1-.264.636l-7.2,7.2a.9.9,0,0,1-1.273,0l-3.6-3.6a.9.9,0,1,1,1.273-1.273l2.965,2.966,6.567-6.567a.9.9,0,0,1,1.536.636Z" transform="translate(193.779 481.525)"/>
    </g>
  </g>
</svg>
