<svg xmlns="http://www.w3.org/2000/svg" width="36.353" height="38.333" viewBox="0 0 36.353 38.333">
  <g id="_2620509_employee_job_note_seeker_unemployee_icon" data-name="2620509_employee_job_note_seeker_unemployee_icon" transform="translate(-13.73 -7.506)">
    <rect id="Rectangle_30614" data-name="Rectangle 30614" width="0.795" height="22.35" transform="translate(43.925 10.201)" fill="#e4ebed"/>
    <path id="Path_276969" data-name="Path 276969" d="M77.48,67.674V83.461a.34.34,0,0,1-.092.224l-7.926,7.926a.318.318,0,0,1-.229.092H51.93l.52,2.947a1.276,1.276,0,0,0,1.486,1.037l26.494-4.81a1.287,1.287,0,0,0,1.042-1.487L77.638,67.66Z" transform="translate(-32.124 -50.586)" fill="#e5e4e4"/>
    <path id="Path_276970" data-name="Path 276970" d="M162.74,175.81l6.84-6.84h-6.84Z" transform="translate(-125.308 -135.781)" fill="#effafe"/>
    <path id="Path_276971" data-name="Path 276971" d="M88.922,89.391,85.089,67.66l-.159.014v3.6l3.2,18.116a1.287,1.287,0,0,1-1.042,1.487L60.79,95.649a1.272,1.272,0,0,0,.371.056,1.287,1.287,0,0,0,.226-.021L87.88,90.879A1.287,1.287,0,0,0,88.922,89.391Z" transform="translate(-39.574 -50.586)" fill="#ccc"/>
    <path id="Path_276972" data-name="Path 276972" d="M168.784,168.97l-6.044,6.044v.8l6.84-6.84Z" transform="translate(-125.308 -135.781)" fill="#e4ebed"/>
    <path id="Path_276973" data-name="Path 276973" d="M15.729,41.195H18.3l.527,2.992a2,2,0,0,0,1.966,1.653,2.024,2.024,0,0,0,.352-.03L48.43,41a2,2,0,0,0,1.622-2.316L45.436,12.516V9.883a.4.4,0,0,0-.4-.4h-23a2.376,2.376,0,0,0-4.686,0H15.729a2,2,0,0,0-2,2V39.2a2,2,0,0,0,2,2Zm29.586-8.042h0a.414.414,0,0,0,.113-.277V17.089L49.26,38.82a1.206,1.206,0,0,1-.978,1.395L21,45.025a1.2,1.2,0,0,1-1.395-.977l-.5-2.854H37.112a.4.4,0,0,0,.282-.116Zm-7.81,6.681V33.264h6.569ZM19.692,8.3a1.591,1.591,0,0,1,1.53,1.193H18.16A1.591,1.591,0,0,1,19.692,8.3Zm-5.166,3.181a1.206,1.206,0,0,1,1.2-1.193H17.32v3.558a2.386,2.386,0,1,0,4.759,0v-1.98a.4.4,0,0,0-.8,0v1.98a1.591,1.591,0,1,1-3.169,0V10.289H44.641V32.473H37.114a.4.4,0,0,0-.4.4V40.4H15.729a1.206,1.206,0,0,1-1.2-1.2Z" fill="#263238"/>
    <path id="Path_276974" data-name="Path 276974" d="M56.9,78.125H77.379a.4.4,0,0,0,0-.8H56.9a.4.4,0,0,0,0,.8Z" transform="translate(-35.967 -58.717)" fill="#263238"/>
    <path id="Path_276975" data-name="Path 276975" d="M36.9,98.125H60.56a.4.4,0,0,0,0-.8H36.9a.4.4,0,0,0,0,.8Z" transform="translate(-19.148 -75.536)" fill="#263238"/>
    <path id="Path_276976" data-name="Path 276976" d="M36.9,118.125H60.56a.4.4,0,0,0,0-.8H36.9a.4.4,0,0,0,0,.8Z" transform="translate(-19.148 -92.355)" fill="#263238"/>
    <path id="Path_276977" data-name="Path 276977" d="M36.9,138.125H60.56a.4.4,0,0,0,0-.8H36.9a.4.4,0,0,0,0,.8Z" transform="translate(-19.148 -109.174)" fill="#263238"/>
    <path id="Path_276978" data-name="Path 276978" d="M36.9,158.125H53.074a.4.4,0,1,0,0-.8H36.9a.4.4,0,0,0,0,.8Z" transform="translate(-19.148 -125.992)" fill="#263238"/>
    <path id="Path_276979" data-name="Path 276979" d="M36.9,178.125H53.074a.4.4,0,1,0,0-.8H36.9a.4.4,0,0,0,0,.8Z" transform="translate(-19.148 -142.811)" fill="#263238"/>
    <path id="Path_276980" data-name="Path 276980" d="M36.9,198.125H53.074a.4.4,0,1,0,0-.8H36.9a.4.4,0,0,0,0,.8Z" transform="translate(-19.148 -159.63)" fill="#263238"/>
  </g>
</svg>
