<svg xmlns="http://www.w3.org/2000/svg" width="17.197" height="11.387" viewBox="0 0 17.197 11.387">
  <g id="_3448005_disruption_global_innovation_lead_popular_icon" data-name="3448005_disruption_global_innovation_lead_popular_icon" transform="translate(-139.347 -268.389)">
    <path id="Path_276835" data-name="Path 276835" d="M397.5,268.439h-2.465a.369.369,0,0,0,0,.737h2.1v9.812H395.4v-8.524a.369.369,0,0,0-.737,0v8.892a.369.369,0,0,0,.369.369H397.5a.369.369,0,0,0,.369-.369v-10.55A.369.369,0,0,0,397.5,268.439Z" transform="translate(-241.374)" stroke="#000" stroke-width="0.1"/>
    <path id="Path_276836" data-name="Path 276836" d="M312.411,352.7h-2.465a.369.369,0,0,0-.369.369v5.963a.369.369,0,0,0,.369.369h2.465a.369.369,0,0,0,.369-.369V353.07A.369.369,0,0,0,312.411,352.7Zm-.369,5.963h-1.728v-5.226h1.728Z" transform="translate(-160.917 -79.675)" stroke="#000" stroke-width="0.1"/>
    <path id="Path_276837" data-name="Path 276837" d="M227.322,390.57h-2.465a.369.369,0,0,0-.369.369v3.9a.369.369,0,0,0,.369.369h2.465a.369.369,0,0,0,.369-.369v-3.9A.369.369,0,0,0,227.322,390.57Zm-.369,3.9h-1.728v-3.165h1.728Z" transform="translate(-80.459 -115.483)" stroke="#000" stroke-width="0.1"/>
    <path id="Path_276838" data-name="Path 276838" d="M142.231,422.544h-2.465a.369.369,0,0,0-.369.369v2.162a.369.369,0,0,0,.369.369h2.465a.369.369,0,0,0,.369-.369v-2.162A.369.369,0,0,0,142.231,422.544Zm-.369,2.162h-1.728v-1.424h1.728Z" transform="translate(0 -145.717)" stroke="#000" stroke-width="0.1"/>
  </g>
</svg>
