<svg xmlns="http://www.w3.org/2000/svg" xmlns:xlink="http://www.w3.org/1999/xlink" width="131.126" height="43" viewBox="0 0 131.126 43">
  <defs>
    <filter id="Path_276851" x="11.293" y="0.379" width="40.933" height="31.05" filterUnits="userSpaceOnUse">
      <feOffset dy="3" input="SourceAlpha"/>
      <feGaussianBlur stdDeviation="0.5" result="blur"/>
      <feFlood flood-opacity="0.188"/>
      <feComposite operator="in" in2="blur"/>
      <feComposite in="SourceGraphic"/>
    </filter>
    <filter id="Path_276854" x="57.175" y="0.379" width="26.865" height="31.05" filterUnits="userSpaceOnUse">
      <feOffset dy="3" input="SourceAlpha"/>
      <feGaussianBlur stdDeviation="0.5" result="blur-2"/>
      <feFlood flood-opacity="0.188"/>
      <feComposite operator="in" in2="blur-2"/>
      <feComposite in="SourceGraphic"/>
    </filter>
    <filter id="Path_276858" x="91.111" y="0" width="23.045" height="31.692" filterUnits="userSpaceOnUse">
      <feOffset dy="3" input="SourceAlpha"/>
      <feGaussianBlur stdDeviation="0.5" result="blur-3"/>
      <feFlood flood-opacity="0.188"/>
      <feComposite operator="in" in2="blur-3"/>
      <feComposite in="SourceGraphic"/>
    </filter>
  </defs>
  <g id="Group_158460" data-name="Group 158460" transform="translate(-4618 84.822)">
    <g id="Group_158436" data-name="Group 158436" transform="translate(4630.793 -84.822)">
      <g transform="matrix(1, 0, 0, 1, -12.79, 0)" filter="url(#Path_276851)">
        <path id="Path_276851-2" data-name="Path 276851" d="M55.876.731,52.019,20.056,47.481.731H40.37L35.643,20.056,31.823.731H24.9l6.731,26.55h7.829L43.85,9.807l4.236,17.473h7.829L62.835.731Z" transform="translate(-12.11 -0.35)"/>
      </g>
      <path id="Path_276852" data-name="Path 276852" d="M102.088,49.2h-1.4a.426.426,0,0,0,.121.289.374.374,0,0,0,.263.1.325.325,0,0,0,.323-.2h.66a.913.913,0,0,1-.515.609,1.061,1.061,0,0,1-.447.09,1.081,1.081,0,0,1-.529-.126.9.9,0,0,1-.362-.363,1.115,1.115,0,0,1-.131-.551,1.132,1.132,0,0,1,.129-.552.886.886,0,0,1,.361-.362,1.173,1.173,0,0,1,1.055,0,.886.886,0,0,1,.357.352,1.07,1.07,0,0,1,.129.533,1.584,1.584,0,0,1-.011.181m-.624-.345a.32.32,0,0,0-.109-.254.4.4,0,0,0-.272-.094.393.393,0,0,0-.263.091.4.4,0,0,0-.132.257Z" transform="translate(-61.126 -23.139)"/>
      <path id="Path_276853" data-name="Path 276853" d="M105.487,47.515a.792.792,0,0,1,.374-.087.835.835,0,0,1,.453.127.881.881,0,0,1,.321.362,1.339,1.339,0,0,1,0,1.1.893.893,0,0,1-.321.366.827.827,0,0,1-.453.128.789.789,0,0,1-.374-.085.662.662,0,0,1-.25-.227v.283h-.62V46.8h.62v.947a.645.645,0,0,1,.25-.229m.506.586a.424.424,0,0,0-.317-.133.416.416,0,0,0-.314.135.584.584,0,0,0,0,.733.434.434,0,0,0,.629,0,.51.51,0,0,0,.131-.368.5.5,0,0,0-.129-.364" transform="translate(-63.318 -22.552)"/>
      <g transform="matrix(1, 0, 0, 1, -12.79, 0)" filter="url(#Path_276854)">
        <path id="Path_276854-2" data-name="Path 276854" d="M130.747,2.395a11.9,11.9,0,0,1,4.86,4.671,13.729,13.729,0,0,1,1.721,6.941,13.755,13.755,0,0,1-1.721,6.921,11.832,11.832,0,0,1-4.879,4.689,15.461,15.461,0,0,1-7.318,1.665h-9.947V.731h9.947a15.447,15.447,0,0,1,7.337,1.664M128.7,19.678a7.586,7.586,0,0,0,2.043-5.673A7.72,7.72,0,0,0,128.7,8.295a7.717,7.717,0,0,0-5.71-2.042H119.93v15.43h3.064a7.8,7.8,0,0,0,5.71-2" transform="translate(-54.79 -0.35)"/>
      </g>
      <path id="Path_276855" data-name="Path 276855" d="M164.3,48.07l-1.269,2.985h-.667l.464-1.03L162,48.07h.693l.468,1.266.464-1.266Z" transform="translate(-90.972 -23.166)"/>
      <path id="Path_276856" data-name="Path 276856" d="M168.665,48.259a.9.9,0,0,1,.212.633v1.183h-.617v-1.1a.446.446,0,0,0-.105-.316.413.413,0,0,0-.566,0,.444.444,0,0,0-.105.316v1.1h-.62V48.05h.62v.268a.665.665,0,0,1,.254-.212.808.808,0,0,1,.359-.078.733.733,0,0,1,.568.231" transform="translate(-93.316 -23.145)"/>
      <path id="Path_276857" data-name="Path 276857" d="M171.462,48.5a.881.881,0,0,1,.321-.363.839.839,0,0,1,.453-.127.787.787,0,0,1,.376.087.656.656,0,0,1,.248.229v-.286h.62v2.024h-.62V49.78a.667.667,0,0,1-.252.228.776.776,0,0,1-.375.087.825.825,0,0,1-.451-.128.9.9,0,0,1-.321-.366,1.332,1.332,0,0,1,0-1.1m1.27.185a.436.436,0,0,0-.628,0,.5.5,0,0,0-.128.364.514.514,0,0,0,.128.368.414.414,0,0,0,.314.136.421.421,0,0,0,.314-.134.586.586,0,0,0,0-.733" transform="translate(-95.475 -23.138)"/>
      <g transform="matrix(1, 0, 0, 1, -12.79, 0)" filter="url(#Path_276858)">
        <path id="Path_276858-2" data-name="Path 276858" d="M184.11,26.247a8.507,8.507,0,0,1-3.688-2.8,7.644,7.644,0,0,1-1.456-4.463h6.884a3.337,3.337,0,0,0,1.021,2.251,3.28,3.28,0,0,0,2.269.775,3.552,3.552,0,0,0,2.269-.662,2.214,2.214,0,0,0,.832-1.835,2.17,2.17,0,0,0-.662-1.626,5.345,5.345,0,0,0-1.626-1.059,26.28,26.28,0,0,0-2.742-.945,29.836,29.836,0,0,1-4.2-1.588,7.749,7.749,0,0,1-2.8-2.345A6.533,6.533,0,0,1,179.042,7.9,6.957,6.957,0,0,1,181.727,2.1a11.03,11.03,0,0,1,7-2.1A11.16,11.16,0,0,1,195.8,2.1a7.516,7.516,0,0,1,2.874,5.843h-7a2.74,2.74,0,0,0-.947-2.024,3.326,3.326,0,0,0-2.231-.737,2.781,2.781,0,0,0-1.892.623,2.254,2.254,0,0,0-.718,1.8,2.226,2.226,0,0,0,1.21,2,19.815,19.815,0,0,0,3.782,1.55,34.93,34.93,0,0,1,4.179,1.665,7.968,7.968,0,0,1,2.78,2.306,6.179,6.179,0,0,1,1.172,3.9,7.639,7.639,0,0,1-1.154,4.122,8.079,8.079,0,0,1-3.347,2.949,11.456,11.456,0,0,1-5.182,1.1,13.649,13.649,0,0,1-5.219-.945" transform="translate(-86.36)"/>
      </g>
      <path id="Path_276859" data-name="Path 276859" d="M221.221,46.944a.328.328,0,0,1,0-.478.378.378,0,0,1,.267-.1.374.374,0,0,1,.263.1.314.314,0,0,1,.1.24.311.311,0,0,1-.1.238.371.371,0,0,1-.263.1.376.376,0,0,1-.267-.1m.575,2.331h-.62V47.251h.62Z" transform="translate(-119.461 -22.346)"/>
      <path id="Path_276860" data-name="Path 276860" d="M224.285,49.109v.526h-.315a.776.776,0,0,1-.526-.165.684.684,0,0,1-.188-.539v-.8h-.247v-.515h.247v-.494h.62v.494h.406v.515h-.406v.812a.172.172,0,0,0,.044.131.213.213,0,0,0,.145.039Z" transform="translate(-120.372 -22.706)"/>
      <path id="Path_276861" data-name="Path 276861" d="M227.919,49.2h-1.4a.426.426,0,0,0,.121.289.374.374,0,0,0,.263.1.325.325,0,0,0,.323-.2h.661a.913.913,0,0,1-.515.609,1.064,1.064,0,0,1-.446.09,1.081,1.081,0,0,1-.529-.126.905.905,0,0,1-.363-.363,1.121,1.121,0,0,1-.131-.551,1.138,1.138,0,0,1,.128-.552.89.89,0,0,1,.361-.362,1.173,1.173,0,0,1,1.055,0,.886.886,0,0,1,.357.352,1.064,1.064,0,0,1,.129.533,1.589,1.589,0,0,1-.011.181m-.624-.345a.32.32,0,0,0-.109-.254.4.4,0,0,0-.272-.094.391.391,0,0,0-.263.091.4.4,0,0,0-.133.257Z" transform="translate(-121.766 -23.139)"/>
    </g>
    <g id="Group_158437" data-name="Group 158437" transform="translate(4618 -47.954)">
      <path id="Path_276862" data-name="Path 276862" d="M0,71.173l.075,1.259H.73L.8,71.173Zm1.083,0,.075,1.259h.655l.074-1.259Z" transform="translate(0 -71.167)" fill="#fff"/>
      <path id="Path_276863" data-name="Path 276863" d="M7.9,72.251,6.518,74.929v1.322H5.543V74.929L4.158,72.251H5.264l.775,1.675.769-1.675Z" transform="translate(-2.003 -71.687)" fill="#fff"/>
      <path id="Path_276864" data-name="Path 276864" d="M12.571,76.819a1.459,1.459,0,0,1-.587-.57,1.844,1.844,0,0,1,0-1.729,1.469,1.469,0,0,1,.593-.572,1.882,1.882,0,0,1,1.686,0,1.47,1.47,0,0,1,.593.572,1.688,1.688,0,0,1,.217.863,1.669,1.669,0,0,1-.22.864,1.483,1.483,0,0,1-.6.573,1.789,1.789,0,0,1-.847.2,1.749,1.749,0,0,1-.84-.2m1.316-.849a.819.819,0,0,0,.2-.588.83.83,0,0,0-.191-.587.648.648,0,0,0-.943,0,.834.834,0,0,0-.188.589.847.847,0,0,0,.185.588.6.6,0,0,0,.464.205.637.637,0,0,0,.476-.205" transform="translate(-5.672 -72.408)" fill="#fff"/>
      <path id="Path_276865" data-name="Path 276865" d="M22.265,73.835v3.18H21.29v-.433a1.068,1.068,0,0,1-.4.339,1.226,1.226,0,0,1-.561.129,1.258,1.258,0,0,1-.644-.162,1.1,1.1,0,0,1-.433-.471,1.6,1.6,0,0,1-.154-.723V73.835h.969v1.727a.7.7,0,0,0,.165.5.58.58,0,0,0,.445.177.587.587,0,0,0,.45-.177.7.7,0,0,0,.165-.5V73.835Z" transform="translate(-9.203 -72.45)" fill="#fff"/>
      <path id="Path_276866" data-name="Path 276866" d="M27.967,73.92a1.1,1.1,0,0,1,.57-.151V74.8h-.268a.82.82,0,0,0-.547.157.694.694,0,0,0-.182.55v1.476h-.975V73.8h.975v.53a1.285,1.285,0,0,1,.427-.413" transform="translate(-12.802 -72.418)" fill="#fff"/>
      <path id="Path_276867" data-name="Path 276867" d="M34.16,76.1a1.279,1.279,0,0,1-.555-.421,1.153,1.153,0,0,1-.22-.672h1.037a.5.5,0,0,0,.154.339.5.5,0,0,0,.342.117.536.536,0,0,0,.342-.1.335.335,0,0,0,.125-.277.327.327,0,0,0-.1-.245.786.786,0,0,0-.245-.159,3.9,3.9,0,0,0-.413-.143A4.387,4.387,0,0,1,34,74.294a1.16,1.16,0,0,1-.422-.353.985.985,0,0,1-.177-.61,1.048,1.048,0,0,1,.405-.875,1.932,1.932,0,0,1,2.119,0,1.129,1.129,0,0,1,.433.88H35.3a.409.409,0,0,0-.142-.3.5.5,0,0,0-.337-.111.416.416,0,0,0-.284.094.362.362,0,0,0,.074.572,2.97,2.97,0,0,0,.57.234,5.21,5.21,0,0,1,.63.251,1.19,1.19,0,0,1,.419.348.927.927,0,0,1,.177.586,1.149,1.149,0,0,1-.174.622,1.217,1.217,0,0,1-.5.444,1.723,1.723,0,0,1-.781.165,2.05,2.05,0,0,1-.786-.142" transform="translate(-16.089 -71.633)" fill="#fff"/>
      <path id="Path_276868" data-name="Path 276868" d="M43.484,73.835v3.18h-.975v-.433a1.068,1.068,0,0,1-.4.339,1.226,1.226,0,0,1-.561.129,1.258,1.258,0,0,1-.644-.162,1.1,1.1,0,0,1-.433-.471,1.6,1.6,0,0,1-.154-.723V73.835h.969v1.727a.7.7,0,0,0,.165.5.58.58,0,0,0,.445.177.587.587,0,0,0,.45-.177.7.7,0,0,0,.165-.5V73.835Z" transform="translate(-19.428 -72.45)" fill="#fff"/>
      <path id="Path_276869" data-name="Path 276869" d="M47.613,74.516a1.4,1.4,0,0,1,.564-.57,1.693,1.693,0,0,1,.829-.2,1.576,1.576,0,0,1,1,.313,1.473,1.473,0,0,1,.527.883H49.5a.5.5,0,0,0-.507-.365.513.513,0,0,0-.427.208,1.191,1.191,0,0,0,0,1.191.511.511,0,0,0,.427.209.5.5,0,0,0,.507-.365h1.037A1.487,1.487,0,0,1,50,76.7a1.559,1.559,0,0,1-1,.319,1.687,1.687,0,0,1-.829-.2,1.4,1.4,0,0,1-.564-.57,1.953,1.953,0,0,1,0-1.732" transform="translate(-22.848 -72.408)" fill="#fff"/>
      <path id="Path_276870" data-name="Path 276870" d="M54.267,74.516a1.4,1.4,0,0,1,.565-.57,1.689,1.689,0,0,1,.828-.2,1.576,1.576,0,0,1,1,.313,1.478,1.478,0,0,1,.527.883H56.15a.5.5,0,0,0-.508-.365.512.512,0,0,0-.427.208,1.188,1.188,0,0,0,0,1.191.51.51,0,0,0,.427.209.5.5,0,0,0,.508-.365h1.037a1.493,1.493,0,0,1-.53.877,1.561,1.561,0,0,1-1,.319,1.684,1.684,0,0,1-.828-.2,1.4,1.4,0,0,1-.565-.57,1.953,1.953,0,0,1,0-1.732" transform="translate(-26.054 -72.408)" fill="#fff"/>
      <path id="Path_276871" data-name="Path 276871" d="M63.894,75.616H61.689a.663.663,0,0,0,.191.453.584.584,0,0,0,.413.156.511.511,0,0,0,.507-.308h1.037a1.421,1.421,0,0,1-.287.564,1.448,1.448,0,0,1-.522.394,1.82,1.82,0,0,1-1.533-.058,1.418,1.418,0,0,1-.57-.57,1.76,1.76,0,0,1-.2-.866,1.78,1.78,0,0,1,.2-.866,1.4,1.4,0,0,1,.567-.57,1.845,1.845,0,0,1,1.658-.005,1.394,1.394,0,0,1,.561.552,1.674,1.674,0,0,1,.2.838,2.488,2.488,0,0,1-.017.285m-.98-.541a.5.5,0,0,0-.171-.4.63.63,0,0,0-.427-.148.619.619,0,0,0-.413.142.63.63,0,0,0-.208.4Z" transform="translate(-29.262 -72.408)" fill="#fff"/>
      <path id="Path_276872" data-name="Path 276872" d="M68.264,76.876a1.267,1.267,0,0,1-.513-.391,1.026,1.026,0,0,1-.211-.555H68.5a.368.368,0,0,0,.154.267.546.546,0,0,0,.337.1.477.477,0,0,0,.282-.072.219.219,0,0,0,.1-.185.214.214,0,0,0-.143-.2,2.862,2.862,0,0,0-.461-.145,4.322,4.322,0,0,1-.57-.168.99.99,0,0,1-.394-.279.761.761,0,0,1-.165-.516.872.872,0,0,1,.151-.5,1.011,1.011,0,0,1,.445-.356,1.7,1.7,0,0,1,.7-.131,1.4,1.4,0,0,1,.943.3,1.156,1.156,0,0,1,.4.787h-.9a.389.389,0,0,0-.146-.262.5.5,0,0,0-.322-.1.443.443,0,0,0-.262.066.209.209,0,0,0-.091.179.219.219,0,0,0,.145.206,2.357,2.357,0,0,0,.453.136,5.044,5.044,0,0,1,.576.18,1,1,0,0,1,.391.285.806.806,0,0,1,.174.527.839.839,0,0,1-.157.5,1.039,1.039,0,0,1-.45.345,1.725,1.725,0,0,1-.681.125,1.827,1.827,0,0,1-.74-.142" transform="translate(-32.548 -72.408)" fill="#fff"/>
      <path id="Path_276873" data-name="Path 276873" d="M74.4,76.876a1.269,1.269,0,0,1-.513-.391,1.03,1.03,0,0,1-.21-.555h.963a.366.366,0,0,0,.154.267.544.544,0,0,0,.336.1.48.48,0,0,0,.282-.072.219.219,0,0,0,.1-.185.215.215,0,0,0-.142-.2,2.865,2.865,0,0,0-.462-.145,4.347,4.347,0,0,1-.57-.168.987.987,0,0,1-.393-.279.761.761,0,0,1-.166-.516.873.873,0,0,1,.151-.5,1.011,1.011,0,0,1,.445-.356,1.7,1.7,0,0,1,.7-.131,1.4,1.4,0,0,1,.943.3,1.154,1.154,0,0,1,.4.787h-.9a.39.39,0,0,0-.146-.262.5.5,0,0,0-.322-.1.443.443,0,0,0-.263.066.209.209,0,0,0-.091.179.218.218,0,0,0,.145.206,2.364,2.364,0,0,0,.453.136,5.146,5.146,0,0,1,.576.18,1,1,0,0,1,.39.285.806.806,0,0,1,.174.527.835.835,0,0,1-.157.5,1.031,1.031,0,0,1-.45.345,1.724,1.724,0,0,1-.681.125,1.832,1.832,0,0,1-.741-.142" transform="translate(-35.507 -72.408)" fill="#fff"/>
      <path id="Path_276874" data-name="Path 276874" d="M81,78.234l-.633,1.636H79.75l.331-1.636Z" transform="translate(-38.433 -74.57)" fill="#fff"/>
      <path id="Path_276875" data-name="Path 276875" d="M88.524,74.174a1.162,1.162,0,0,1-.49.464,1.722,1.722,0,0,1-.821.177h-.6v1.436h-.975v-4h1.579a1.8,1.8,0,0,1,.809.165,1.139,1.139,0,0,1,.5.456,1.33,1.33,0,0,1,.165.667,1.286,1.286,0,0,1-.16.636m-.968-.265a.57.57,0,0,0,0-.741.582.582,0,0,0-.416-.131h-.53v1h.53a.58.58,0,0,0,.416-.132" transform="translate(-41.269 -71.687)" fill="#fff"/>
      <path id="Path_276876" data-name="Path 276876" d="M92.925,76.819a1.463,1.463,0,0,1-.587-.57,1.846,1.846,0,0,1,0-1.729,1.466,1.466,0,0,1,.593-.572,1.882,1.882,0,0,1,1.686,0,1.469,1.469,0,0,1,.593.572,1.82,1.82,0,0,1,0,1.727,1.481,1.481,0,0,1-.6.573,1.787,1.787,0,0,1-.846.2,1.753,1.753,0,0,1-.841-.2m1.316-.849a.817.817,0,0,0,.2-.588.832.832,0,0,0-.191-.587.648.648,0,0,0-.943,0,.834.834,0,0,0-.188.589.847.847,0,0,0,.185.588.6.6,0,0,0,.464.205.635.635,0,0,0,.476-.205" transform="translate(-44.396 -72.408)" fill="#fff"/>
      <path id="Path_276877" data-name="Path 276877" d="M103.763,73.835l-.861,3.18h-1.077l-.5-2.064-.519,2.064H99.734l-.866-3.18h.975l.45,2.274.536-2.274h1.032L102.4,76.1l.445-2.262Z" transform="translate(-47.646 -72.45)" fill="#fff"/>
      <path id="Path_276878" data-name="Path 276878" d="M111.833,75.616h-2.206a.661.661,0,0,0,.191.453.584.584,0,0,0,.413.156.512.512,0,0,0,.507-.308h1.037a1.422,1.422,0,0,1-.288.564,1.451,1.451,0,0,1-.521.394,1.82,1.82,0,0,1-1.533-.058,1.415,1.415,0,0,1-.57-.57,1.754,1.754,0,0,1-.2-.866,1.774,1.774,0,0,1,.2-.866,1.4,1.4,0,0,1,.567-.57,1.715,1.715,0,0,1,.838-.2,1.7,1.7,0,0,1,.821.194,1.4,1.4,0,0,1,.562.552,1.68,1.68,0,0,1,.2.838,2.61,2.61,0,0,1-.017.285m-.981-.541a.5.5,0,0,0-.171-.4.628.628,0,0,0-.427-.148.619.619,0,0,0-.414.142.633.633,0,0,0-.208.4Z" transform="translate(-52.365 -72.408)" fill="#fff"/>
      <path id="Path_276879" data-name="Path 276879" d="M117.21,73.92a1.1,1.1,0,0,1,.57-.151V74.8h-.268a.82.82,0,0,0-.547.157.694.694,0,0,0-.182.55v1.476h-.975V73.8h.975v.53a1.285,1.285,0,0,1,.427-.413" transform="translate(-55.81 -72.418)" fill="#fff"/>
      <path id="Path_276880" data-name="Path 276880" d="M123.316,75.616h-2.205a.663.663,0,0,0,.191.453.584.584,0,0,0,.413.156.511.511,0,0,0,.507-.308h1.037a1.42,1.42,0,0,1-.287.564,1.448,1.448,0,0,1-.522.394,1.82,1.82,0,0,1-1.533-.058,1.418,1.418,0,0,1-.57-.57,1.76,1.76,0,0,1-.2-.866,1.78,1.78,0,0,1,.2-.866,1.4,1.4,0,0,1,.567-.57,1.845,1.845,0,0,1,1.658-.005,1.394,1.394,0,0,1,.561.552,1.674,1.674,0,0,1,.2.838,2.486,2.486,0,0,1-.017.285m-.98-.541a.5.5,0,0,0-.171-.4.63.63,0,0,0-.427-.148.619.619,0,0,0-.413.142.63.63,0,0,0-.208.4Z" transform="translate(-57.898 -72.408)" fill="#fff"/>
      <path id="Path_276881" data-name="Path 276881" d="M127.1,73.593a1.387,1.387,0,0,1,.5-.569,1.316,1.316,0,0,1,.712-.2,1.251,1.251,0,0,1,.573.131,1.045,1.045,0,0,1,.408.353V71.833h.974V76.05H129.3v-.456a1,1,0,0,1-.391.365,1.222,1.222,0,0,1-.59.137,1.3,1.3,0,0,1-.712-.2,1.4,1.4,0,0,1-.5-.575,2.1,2.1,0,0,1,0-1.725m1.995.291a.685.685,0,0,0-.986,0,.786.786,0,0,0-.2.573.805.805,0,0,0,.2.578.678.678,0,0,0,.986,0,.919.919,0,0,0,0-1.151" transform="translate(-61.164 -71.485)" fill="#fff"/>
      <path id="Path_276882" data-name="Path 276882" d="M138.46,72.961a1.227,1.227,0,0,1,.587-.137,1.317,1.317,0,0,1,.712.2,1.388,1.388,0,0,1,.5.569,2.1,2.1,0,0,1,0,1.724,1.4,1.4,0,0,1-.5.576,1.3,1.3,0,0,1-.712.2,1.229,1.229,0,0,1-.587-.134,1.037,1.037,0,0,1-.394-.356v.445h-.975V71.833h.975V73.32a1,1,0,0,1,.394-.359m.795.92a.667.667,0,0,0-.5-.208.656.656,0,0,0-.493.211.919.919,0,0,0,0,1.151.682.682,0,0,0,.989,0,.8.8,0,0,0,.205-.579.786.786,0,0,0-.2-.572" transform="translate(-66.066 -71.485)" fill="#fff"/>
      <path id="Path_276883" data-name="Path 276883" d="M147.475,73.835l-2,4.69h-1.048l.729-1.618-1.294-3.072h1.089l.735,1.989.729-1.989Z" transform="translate(-69.332 -72.45)" fill="#fff"/>
      <path id="Path_276884" data-name="Path 276884" d="M156.448,72.5a1.792,1.792,0,0,1,.733.7,2.235,2.235,0,0,1,0,2.089,1.784,1.784,0,0,1-.735.707,2.327,2.327,0,0,1-1.1.251h-1.5v-4h1.5a2.325,2.325,0,0,1,1.105.251m-.308,2.6a1.143,1.143,0,0,0,.308-.855,1.068,1.068,0,0,0-1.168-1.168h-.462v2.325h.462a1.174,1.174,0,0,0,.86-.3" transform="translate(-74.14 -71.687)" fill="#fff"/>
      <path id="Path_276885" data-name="Path 276885" d="M164.756,73.835l-1.995,4.69h-1.048l.729-1.618-1.294-3.072h1.089l.735,1.989.729-1.989Z" transform="translate(-77.66 -72.45)" fill="#fff"/>
      <path id="Path_276886" data-name="Path 276886" d="M171.623,74.131a1.412,1.412,0,0,1,.334.995v1.858h-.969V75.256a.7.7,0,0,0-.165-.5.648.648,0,0,0-.889,0,.7.7,0,0,0-.165.5v1.727h-.975V73.8h.975v.422a1.027,1.027,0,0,1,.4-.334,1.276,1.276,0,0,1,.564-.122,1.155,1.155,0,0,1,.892.362" transform="translate(-81.344 -72.418)" fill="#fff"/>
      <path id="Path_276887" data-name="Path 276887" d="M176.019,74.516a1.388,1.388,0,0,1,.5-.569,1.316,1.316,0,0,1,.712-.2,1.222,1.222,0,0,1,.59.137,1.01,1.01,0,0,1,.391.359v-.45h.974v3.18h-.974v-.45a1.057,1.057,0,0,1-.4.359,1.225,1.225,0,0,1-.59.137,1.29,1.29,0,0,1-.707-.2,1.4,1.4,0,0,1-.5-.575,2.1,2.1,0,0,1,0-1.725m1.995.291a.685.685,0,0,0-.986,0,.786.786,0,0,0-.2.573.8.8,0,0,0,.2.578.678.678,0,0,0,.986,0,.919.919,0,0,0,0-1.151" transform="translate(-84.737 -72.408)" fill="#fff"/>
      <path id="Path_276888" data-name="Path 276888" d="M188.677,74.128a1.368,1.368,0,0,1,.351,1v1.858h-.969V75.256a.658.658,0,0,0-.162-.476.68.68,0,0,0-.895,0,.658.658,0,0,0-.163.476v1.727h-.969V75.256a.658.658,0,0,0-.162-.476.68.68,0,0,0-.895,0,.658.658,0,0,0-.163.476v1.727h-.975V73.8h.975v.4a1.047,1.047,0,0,1,.388-.317,1.22,1.22,0,0,1,.541-.117,1.314,1.314,0,0,1,.642.154,1.1,1.1,0,0,1,.441.439,1.284,1.284,0,0,1,.45-.427,1.218,1.218,0,0,1,.622-.165,1.258,1.258,0,0,1,.943.359" transform="translate(-88.516 -72.418)" fill="#fff"/>
      <path id="Path_276889" data-name="Path 276889" d="M195.311,72.065a.489.489,0,0,1-.163-.373.5.5,0,0,1,.163-.379.591.591,0,0,1,.419-.151.583.583,0,0,1,.413.151.5.5,0,0,1,.163.379.489.489,0,0,1-.163.373.58.58,0,0,1-.413.151.588.588,0,0,1-.419-.151m.9,3.662h-.975v-3.18h.975Z" transform="translate(-94.045 -71.162)" fill="#fff"/>
      <path id="Path_276890" data-name="Path 276890" d="M198.4,74.516a1.4,1.4,0,0,1,.564-.57,1.692,1.692,0,0,1,.829-.2,1.577,1.577,0,0,1,1,.313,1.481,1.481,0,0,1,.527.883h-1.037a.5.5,0,0,0-.508-.365.512.512,0,0,0-.427.208,1.191,1.191,0,0,0,0,1.191.51.51,0,0,0,.427.209.5.5,0,0,0,.508-.365h1.037a1.493,1.493,0,0,1-.531.877,1.559,1.559,0,0,1-1,.319,1.686,1.686,0,0,1-.829-.2,1.4,1.4,0,0,1-.564-.57,1.953,1.953,0,0,1,0-1.732" transform="translate(-95.513 -72.408)" fill="#fff"/>
      <path id="Path_276891" data-name="Path 276891" d="M210.161,72.5a1.8,1.8,0,0,1,.733.7,2.235,2.235,0,0,1,0,2.089,1.782,1.782,0,0,1-.736.707,2.326,2.326,0,0,1-1.1.251h-1.5v-4h1.5a2.329,2.329,0,0,1,1.106.251m-.308,2.6a1.143,1.143,0,0,0,.308-.855,1.068,1.068,0,0,0-1.168-1.168h-.462v2.325h.462a1.176,1.176,0,0,0,.861-.3" transform="translate(-100.024 -71.687)" fill="#fff"/>
      <path id="Path_276892" data-name="Path 276892" d="M218.354,75.616h-2.205a.658.658,0,0,0,.191.453.585.585,0,0,0,.413.156.512.512,0,0,0,.507-.308H218.3a1.429,1.429,0,0,1-.288.564,1.451,1.451,0,0,1-.521.394,1.82,1.82,0,0,1-1.533-.058,1.416,1.416,0,0,1-.57-.57,1.754,1.754,0,0,1-.205-.866,1.78,1.78,0,0,1,.2-.866,1.4,1.4,0,0,1,.567-.57,1.718,1.718,0,0,1,.838-.2,1.7,1.7,0,0,1,.821.194,1.389,1.389,0,0,1,.562.552,1.68,1.68,0,0,1,.2.838,2.614,2.614,0,0,1-.017.285m-.981-.541a.5.5,0,0,0-.171-.4.626.626,0,0,0-.427-.148.618.618,0,0,0-.413.142.633.633,0,0,0-.208.4Z" transform="translate(-103.699 -72.408)" fill="#fff"/>
      <path id="Path_276893" data-name="Path 276893" d="M222.723,76.876a1.269,1.269,0,0,1-.513-.391,1.03,1.03,0,0,1-.21-.555h.963a.366.366,0,0,0,.154.267.544.544,0,0,0,.336.1.48.48,0,0,0,.282-.072.219.219,0,0,0,.1-.185.215.215,0,0,0-.142-.2,2.865,2.865,0,0,0-.462-.145,4.347,4.347,0,0,1-.57-.168.987.987,0,0,1-.393-.279.761.761,0,0,1-.166-.516.873.873,0,0,1,.151-.5,1.011,1.011,0,0,1,.445-.356,1.7,1.7,0,0,1,.7-.131,1.4,1.4,0,0,1,.943.3,1.154,1.154,0,0,1,.4.787h-.9a.39.39,0,0,0-.146-.262.5.5,0,0,0-.322-.1.443.443,0,0,0-.263.066.209.209,0,0,0-.091.179.218.218,0,0,0,.145.206,2.363,2.363,0,0,0,.453.136,5.147,5.147,0,0,1,.576.18,1,1,0,0,1,.39.285.806.806,0,0,1,.174.527.835.835,0,0,1-.157.5,1.031,1.031,0,0,1-.45.345,1.723,1.723,0,0,1-.681.125,1.832,1.832,0,0,1-.741-.142" transform="translate(-106.985 -72.408)" fill="#fff"/>
      <path id="Path_276894" data-name="Path 276894" d="M228.454,72.065a.489.489,0,0,1-.163-.373.5.5,0,0,1,.163-.379.592.592,0,0,1,.419-.151.583.583,0,0,1,.413.151.5.5,0,0,1,.162.379.488.488,0,0,1-.162.373.581.581,0,0,1-.413.151.59.59,0,0,1-.419-.151m.9,3.662h-.975v-3.18h.975Z" transform="translate(-110.017 -71.162)" fill="#fff"/>
      <path id="Path_276895" data-name="Path 276895" d="M233.331,73.884a1.008,1.008,0,0,1,.39.359v-.45h.975v3.174a1.792,1.792,0,0,1-.174.795,1.331,1.331,0,0,1-.53.567,1.716,1.716,0,0,1-.886.211,1.849,1.849,0,0,1-1.145-.333,1.262,1.262,0,0,1-.5-.9h.963a.459.459,0,0,0,.217.288.787.787,0,0,0,.421.106.662.662,0,0,0,.482-.174.745.745,0,0,0,.18-.555v-.45a1.083,1.083,0,0,1-.393.362,1.184,1.184,0,0,1-.587.14,1.3,1.3,0,0,1-.712-.2,1.4,1.4,0,0,1-.5-.575,2.1,2.1,0,0,1,0-1.725,1.385,1.385,0,0,1,.5-.569,1.314,1.314,0,0,1,.712-.2,1.224,1.224,0,0,1,.59.137m.188.923a.686.686,0,0,0-.986,0,.788.788,0,0,0-.2.573.807.807,0,0,0,.2.578.679.679,0,0,0,.986,0,.921.921,0,0,0,0-1.151" transform="translate(-111.486 -72.408)" fill="#fff"/>
      <path id="Path_276896" data-name="Path 276896" d="M242.011,74.131a1.41,1.41,0,0,1,.334.995v1.858h-.97V75.256a.7.7,0,0,0-.165-.5.648.648,0,0,0-.89,0,.7.7,0,0,0-.165.5v1.727h-.975V73.8h.975v.422a1.026,1.026,0,0,1,.4-.334,1.276,1.276,0,0,1,.565-.122,1.154,1.154,0,0,1,.892.362" transform="translate(-115.265 -72.418)" fill="#fff"/>
      <path id="Path_276897" data-name="Path 276897" d="M246.516,78.924a.489.489,0,0,1-.162-.374.5.5,0,0,1,.162-.382.585.585,0,0,1,.419-.154.576.576,0,0,1,.413.154.5.5,0,0,1,.162.382.49.49,0,0,1-.162.374.583.583,0,0,1-.413.151.592.592,0,0,1-.419-.151" transform="translate(-118.722 -74.465)" fill="#fff"/>
      <path id="Path_276898" data-name="Path 276898" d="M250.259,71.173l-.074,1.259h-.655l-.075-1.259Zm1.083,0-.075,1.259h-.655l-.075-1.259Z" transform="translate(-120.216 -71.167)" fill="#fff"/>
    </g>
  </g>
</svg>
