<svg xmlns="http://www.w3.org/2000/svg" width="32" height="32.002" viewBox="0 0 32 32.002">
  <g id="Group_158457" data-name="Group 158457" transform="translate(-52 -407.637)">
    <path id="Path_276985" data-name="Path 276985" d="M5106.917,413.583,5112,408.5l1.083,4.667,4.667,1.25-4.667,5.417-4.833-1.5Z" transform="translate(-5035)" fill="#e5e4e4"/>
    <path id="_1243705_target_dartboard_goal_search_seo_icon" data-name="1243705_target_dartboard_goal_search_seo_icon" d="M24.818,13.7a.759.759,0,0,0-.432,1.08,10.642,10.642,0,0,1,.756,4.1A11.661,11.661,0,1,1,13.481,7.221a14.379,14.379,0,0,1,3.671.54.786.786,0,1,0,.432-1.512,13.052,13.052,0,0,0-4.1-.648A13.281,13.281,0,1,0,26.761,18.882a14.222,14.222,0,0,0-.864-4.751A.957.957,0,0,0,24.818,13.7ZM13.481,16.183a.852.852,0,0,0,.864-.864.8.8,0,0,0-.864-.864A4.319,4.319,0,1,0,17.8,18.774a.852.852,0,0,0-.864-.864c-.54,0-.756.54-.756.972a2.7,2.7,0,1,1-2.7-2.7Zm3.995-4.211a.789.789,0,0,0-.432-1.08,8.136,8.136,0,0,0-3.563-.756,8.8,8.8,0,0,0-8.854,8.746,8.854,8.854,0,0,0,17.707,0,7.823,7.823,0,0,0-.756-3.563.789.789,0,0,0-1.08-.432.884.884,0,0,0-.432,1.08,7.126,7.126,0,0,1,.648,2.915,7.234,7.234,0,1,1-7.234-7.234A6.428,6.428,0,0,1,16.4,12.3.839.839,0,0,0,17.476,11.972Zm14.684-5.4a.684.684,0,0,0-.648-.54l-4.427-.756L26.329.851A.684.684,0,0,0,25.789.2a.84.84,0,0,0-.864.216L19.635,5.71a.668.668,0,0,0-.216.756L20.283,11l-6.8,6.8h-.108A1.188,1.188,0,1,0,14.56,18.99h0l6.91-6.91,4.427.864h.108a.825.825,0,0,0,.54-.216l5.291-5.291A.723.723,0,0,0,32.16,6.573ZM21.147,6.466l3.887-3.887.54,3.023L21.794,9.381ZM25.9,11.216l-2.915-.54L26.761,6.9l2.915.54Z" transform="translate(51.8 407.476)" fill="#262324"/>
  </g>
</svg>
