<svg xmlns="http://www.w3.org/2000/svg" width="15.08" height="16.307" viewBox="0 0 15.08 16.307">
  <g id="_7503212_notification_bell_alert_icon" data-name="7503212_notification_bell_alert_icon" transform="translate(-39.248 -19.25)">
    <path id="Path_276948" data-name="Path 276948" d="M53.5,32.025a.616.616,0,0,0-.226-.233l-.68-.408a1.794,1.794,0,0,1-.869-1.537V26.17a4.935,4.935,0,0,0-3.548-4.733.213.213,0,0,1-.155-.2,1.234,1.234,0,0,0-2.468,0,.213.213,0,0,1-.155.2,4.935,4.935,0,0,0-3.548,4.733v3.675a1.794,1.794,0,0,1-.869,1.537l-.68.408a.628.628,0,0,0,.314,1.166H52.961a.632.632,0,0,0,.541-.933Z" transform="translate(0)" fill="none" stroke="#000" stroke-width="1.5"/>
    <path id="Path_276949" data-name="Path 276949" d="M201.66,453.553a1.845,1.845,0,0,0,2.806-.893h-3.479A1.851,1.851,0,0,0,201.66,453.553Z" transform="translate(-155.936 -419.085)" fill="none" stroke="#000" stroke-width="1.5"/>
  </g>
</svg>
