<svg xmlns="http://www.w3.org/2000/svg" width="22.539" height="39.594" viewBox="0 0 22.539 39.594">
  <g id="sand-clock-timer-svgrepo-com" transform="translate(-110.277)">
    <path id="Path_276960" data-name="Path 276960" d="M149.1,17.984V8.258H129.546v9.726a9.783,9.783,0,0,0,7.191,9.432,9.783,9.783,0,0,0-7.191,9.432v9.726H149.1V36.849a9.783,9.783,0,0,0-7.191-9.432A9.783,9.783,0,0,0,149.1,17.984Z" transform="translate(-17.779 -7.619)" fill="#f6f7f9"/>
    <g id="Group_158447" data-name="Group 158447" transform="translate(111.128 0.639)">
      <path id="Path_276961" data-name="Path 276961" d="M289.675,17.984V8.258H288.4v9.726a9.159,9.159,0,0,1-6.721,8.816.639.639,0,0,0,0,1.232,9.159,9.159,0,0,1,6.721,8.816v9.726h1.277V36.849a10.447,10.447,0,0,0-5.991-9.432A10.448,10.448,0,0,0,289.675,17.984Z" transform="translate(-268.839 -8.258)" fill="#333" stroke="#333" stroke-width="0.5"/>
      <path id="Path_276962" data-name="Path 276962" d="M129.286,26.8a9.159,9.159,0,0,1-6.721-8.816V8.258h-1.277v9.726a10.448,10.448,0,0,0,5.991,9.432,10.448,10.448,0,0,0-5.991,9.432v9.726h1.277V36.849a9.159,9.159,0,0,1,6.721-8.816.639.639,0,0,0,0-1.232Z" transform="translate(-121.287 -8.258)" fill="#333" stroke="#333" stroke-width="0.5"/>
    </g>
    <g id="Group_158448" data-name="Group 158448" transform="translate(110.277)">
      <path id="Path_276963" data-name="Path 276963" d="M132.177,496.761H110.916a.639.639,0,0,1,0-1.277h21.261a.639.639,0,0,1,0,1.277Z" transform="translate(-110.277 -457.167)" fill="#463836"/>
      <path id="Path_276964" data-name="Path 276964" d="M132.177,1.277H110.916a.639.639,0,0,1,0-1.277h21.261a.639.639,0,0,1,0,1.277Z" transform="translate(-110.277)" fill="#463836"/>
    </g>
    <path id="Path_276965" data-name="Path 276965" d="M170.442,174.949V166.57a7.549,7.549,0,0,0,1.275-.239,7.143,7.143,0,0,0,4.994-4.845H162.9a7.143,7.143,0,0,0,4.994,4.845,7.565,7.565,0,0,0,1.275.239v8.379a7.224,7.224,0,0,0-6.586,7.195V185.4h14.449v-3.255A7.224,7.224,0,0,0,170.442,174.949Z" transform="translate(-48.257 -148.998)" fill="#e5e4e4"/>
  </g>
</svg>
