<svg xmlns="http://www.w3.org/2000/svg" width="12.164" height="12.8" viewBox="0 0 12.164 12.8">
  <path id="_9054831_bx_share_alt_icon" data-name="9054831_bx_share_alt_icon" d="M4.229,10.288A2.239,2.239,0,0,0,5.734,9.7l3.993,2.283a1.952,1.952,0,0,0-.077.542,2.252,2.252,0,1,0,.727-1.639L6.385,8.6a1.748,1.748,0,0,0,.077-.485l3.923-2.245A2.226,2.226,0,1,0,9.65,4.229a2.137,2.137,0,0,0,.077.542L6.1,6.844a2.232,2.232,0,1,0-1.869,3.444Zm7.654,1.276a.957.957,0,1,1-.957.957A.957.957,0,0,1,11.883,11.564Zm0-8.292a.957.957,0,1,1-.957.957A.957.957,0,0,1,11.883,3.272ZM4.229,7.1a.957.957,0,1,1-.957.957A.957.957,0,0,1,4.229,7.1Z" transform="translate(-1.99 -1.99)"/>
</svg>
