<svg xmlns="http://www.w3.org/2000/svg" width="14.5" height="14.5" viewBox="0 0 14.5 14.5">
  <g id="_4213462_communication_global_internet_network_web_icon" data-name="4213462_communication_global_internet_network_web_icon" transform="translate(-2 -2)">
    <path id="Path_276850" data-name="Path 276850" d="M9.25,16.5A7.25,7.25,0,1,0,2,9.25,7.256,7.256,0,0,0,9.25,16.5ZM3.637,12.138l2.947-.023a10.5,10.5,0,0,0,1.625,3.356A6.324,6.324,0,0,1,3.637,12.138Zm3.7-4.876H11a9.92,9.92,0,0,1,.023,3.894l-3.7.023A9.61,9.61,0,0,1,7.332,7.262ZM9.168,15.2a9.386,9.386,0,0,1-1.6-3.087l3.216-.023A9.88,9.88,0,0,1,9.168,15.2Zm.935.3a10.311,10.311,0,0,0,1.649-3.426l3.146-.023A6.33,6.33,0,0,1,10.1,15.506ZM15.565,9.25a6.521,6.521,0,0,1-.281,1.871l-3.309.023a10.569,10.569,0,0,0-.023-3.882h3.286A6.216,6.216,0,0,1,15.565,9.25ZM14.84,6.327h-3.11A10.753,10.753,0,0,0,10.1,2.994,6.287,6.287,0,0,1,14.84,6.327Zm-4.081,0H7.578A9.661,9.661,0,0,1,9.168,3.3,9.661,9.661,0,0,1,10.758,6.327Zm-2.549-3.3a10.39,10.39,0,0,0-1.6,3.3H3.66A6.292,6.292,0,0,1,8.209,3.029ZM6.385,7.262a10.759,10.759,0,0,0-.012,3.917L3.251,11.2A6.048,6.048,0,0,1,2.935,9.25a6.216,6.216,0,0,1,.327-1.988Z"/>
  </g>
</svg>
